<svg width="97" height="32" viewBox="0 0 97 32" fill="none" xmlns="http://www.w3.org/2000/svg">
<g clip-path="url(#clip0_11959_23)">
<path d="M73.4565 16.231V23.2714H76.6666V16.6627C76.6666 13.7193 81.126 13.7145 81.126 13.7145V10.8502L80.8005 10.8682C80.3646 10.8965 79.5681 10.9629 78.894 11.0992L78.4962 11.1845C75.8547 11.7863 73.4565 13.0603 73.4565 16.231ZM49.2581 10.7078C50.5086 10.7078 52.0711 11.3434 52.9217 12.4614C53.8026 11.4447 55.251 10.7584 57.0408 10.7324C59.3143 10.7062 62.1255 11.9775 62.1255 15.7906V23.2626H58.9147V15.7906C58.9147 14.5194 57.8915 13.6054 56.3599 13.6054C54.8283 13.6054 53.8042 14.5194 53.8042 15.7906V23.2626H50.5943V15.7906C50.5943 14.5194 49.572 13.6054 48.0387 13.6054C46.5053 13.6054 45.4539 14.5194 45.4539 15.7906V23.2626H42.0776V11.0865H45.4539V12.3096C46.3132 11.374 47.5505 10.7769 49.0016 10.7134L49.2581 10.7078ZM69.5074 11.2415V23.2715H66.2425V11.2415H69.5074ZM67.8745 9.32749C68.8811 9.32749 69.6972 8.59796 69.6972 7.69804C69.6972 6.79813 68.8811 6.0686 67.8745 6.0686C66.868 6.0686 66.052 6.79813 66.052 7.69804C66.052 8.59796 66.868 9.32749 67.8745 9.32749ZM89.8434 10.6817C85.8906 10.6817 82.6868 13.5461 82.6868 17.0801C82.6868 20.6141 85.8906 23.4785 89.8434 23.4785C93.7962 23.4785 97 20.6141 97 17.0801C97 13.5461 93.7962 10.6817 89.8434 10.6817ZM89.8434 20.6015C87.6062 20.6015 85.7915 18.98 85.7915 16.9789C85.7915 14.9779 87.6053 13.3564 89.8434 13.3564C92.0816 13.3564 93.8952 14.9779 93.8952 16.9789C93.8952 18.98 92.0816 20.6015 89.8434 20.6015Z" fill="black"/>
<path d="M0 7.95881C0 3.56328 3.96606 0 8.85845 0H26.5753C31.4677 0 35.4338 3.56328 35.4338 7.95881V23.8764C35.4338 28.272 31.4677 31.8352 26.5753 31.8352H8.85845C3.96606 31.8352 0 28.272 0 23.8764V7.95881Z" fill="#FFDD33"/>
<path d="M23.5573 6.0686H20.3406L23.0211 10.2999L17.124 6.0686H13.9075L16.8561 11.2403L10.6909 6.0686H7.4743L10.6909 12.6516L7.4743 25.8164H10.6909L16.8561 11.7112L13.9075 25.8164H17.124L23.0211 10.7708L20.3406 25.8164H23.5573L29.4543 9.3595L23.5573 6.0686Z" fill="black"/>
</g>
<defs>
<clipPath id="clip0_11959_23">
<rect width="97" height="32" fill="white"/>
</clipPath>
</defs>
</svg>
