<svg width="104" height="30" viewBox="0 0 104 30" fill="none" xmlns="http://www.w3.org/2000/svg">
<g clip-path="url(#clip0_11959_164)">
<path d="M4.94766 20.7343H14.1259C16.6605 20.7343 18.7151 22.7709 18.7151 25.2831C18.7151 27.7954 16.6605 29.832 14.1259 29.832H4.94766C2.41315 29.832 0.358521 27.7954 0.358521 25.2831C0.358521 22.7709 2.41315 20.7343 4.94766 20.7343Z" fill="black" fill-opacity="0.2"/>
<path d="M9.53681 18.5508C14.6058 18.5508 18.7151 14.4776 18.7151 9.45308C18.7151 4.42854 14.6058 0.355347 9.53681 0.355347C4.46778 0.355347 0.358521 4.42854 0.358521 9.45308C0.358521 14.4776 4.46778 18.5508 9.53681 18.5508Z" fill="black" fill-opacity="0.2"/>
<path d="M9.53681 0C14.8038 0 19.0736 4.2323 19.0736 9.45311C19.0736 14.6739 14.8038 18.9062 9.53681 18.9062C4.26978 18.9062 0 14.6739 0 9.45311C0 4.2323 4.26978 0 9.53681 0ZM9.53681 0.35538C4.46778 0.35538 0.358527 4.42857 0.358527 9.45311C0.358527 14.4777 4.46778 18.5508 9.53681 18.5508C14.6058 18.5508 18.7151 14.4777 18.7151 9.45311C18.7151 4.42857 14.6058 0.35538 9.53681 0.35538Z" fill="black" fill-opacity="0.2"/>
<path d="M9.53681 13.5289C11.8077 13.5289 13.6487 11.7041 13.6487 9.4531C13.6487 7.20211 11.8077 5.37732 9.53681 5.37732C7.26589 5.37732 5.42494 7.20211 5.42494 9.4531C5.42494 11.7041 7.26589 13.5289 9.53681 13.5289Z" fill="black" fill-opacity="0.2"/>
<path d="M91.1533 22.8125C89.8196 22.8125 88.6723 22.5708 87.7114 22.0875C86.7506 21.6042 86.012 20.9147 85.4957 20.0192C84.9938 19.1094 84.7428 18.029 84.7428 16.7781H88.7225C88.7225 17.2756 88.8229 17.7021 89.0236 18.0575C89.2244 18.4128 89.504 18.6829 89.8626 18.8677C90.2354 19.0525 90.68 19.1449 91.1963 19.1449C91.7126 19.1449 92.1572 19.0525 92.53 18.8677C92.9029 18.6829 93.1825 18.4128 93.369 18.0575C93.5697 17.7021 93.6701 17.2756 93.6701 16.7781H97.6498C97.6498 18.029 97.3916 19.1094 96.8754 20.0192C96.3591 20.9147 95.6133 21.6042 94.6382 22.0875C93.6773 22.5708 92.5157 22.8125 91.1533 22.8125ZM84.7428 16.7781V7.63062H88.7225V16.7781H84.7428ZM93.6701 16.7781V7.63062H97.6498V16.7781H93.6701ZM100.02 22.5566V7.63062H104V22.5566H100.02Z" fill="black" fill-opacity="0.2"/>
<path d="M37.1004 22.5566L36.9067 20.5736V7.63067H40.7788V22.5566H37.1004ZM34.0457 22.8125C33.0275 22.8125 32.1527 22.5922 31.4213 22.1515C30.7042 21.7108 30.1521 21.0711 29.7649 20.2325C29.3777 19.3938 29.1841 18.3916 29.1841 17.2259C29.1841 16.0605 29.373 15.0684 29.7508 14.2497L29.7649 14.2194C30.1521 13.3807 30.7042 12.741 31.4213 12.3004C32.1527 11.8597 33.0275 11.6394 34.0457 11.6394C34.9349 11.6394 35.6662 11.8597 36.2399 12.3004C36.8279 12.741 37.2581 13.3807 37.5306 14.2194C37.8174 15.0439 37.9608 16.0461 37.9608 17.2259C37.9608 18.3916 37.8174 19.3938 37.5306 20.2325C37.2616 21.0605 36.8387 21.6946 36.2621 22.1347L36.2399 22.1515C35.6662 22.5922 34.9349 22.8125 34.0457 22.8125ZM35.0783 19.2729C35.4368 19.2729 35.7523 19.1876 36.0248 19.0171C36.3116 18.8323 36.5339 18.5906 36.6916 18.2921C36.8494 17.9793 36.9283 17.624 36.9283 17.2259C36.9283 16.8279 36.8494 16.4796 36.6916 16.1811C36.5339 15.8684 36.3116 15.6267 36.0248 15.4561C35.7523 15.2856 35.4296 15.2003 35.0568 15.2003C34.7126 15.2003 34.4042 15.2856 34.1318 15.4561C33.8593 15.6267 33.6442 15.8684 33.4864 16.1811C33.3287 16.4796 33.2426 16.8279 33.2283 17.2259C33.2426 17.624 33.3287 17.9793 33.4864 18.2921C33.6442 18.5906 33.8593 18.8323 34.1318 19.0171C34.4186 19.1876 34.7341 19.2729 35.0783 19.2729ZM48.9859 22.5566L48.8783 20.1045V17.3326C48.8783 16.835 48.8496 16.3872 48.7923 15.9892C48.7349 15.5912 48.5915 15.2785 48.362 15.051C48.1326 14.8236 47.7597 14.7098 47.2434 14.7098C46.8849 14.7098 46.5909 14.7951 46.3615 14.9657C46.132 15.1363 45.9384 15.3353 45.7806 15.5628L42.4033 14.4966C42.7045 13.9138 43.0774 13.4092 43.5219 12.9827C43.9808 12.5562 44.5115 12.2293 45.1138 12.0018C45.7304 11.7602 46.4116 11.6394 47.1574 11.6394C48.3047 11.6394 49.287 11.8455 50.1045 12.2577C50.9219 12.67 51.5458 13.2457 51.976 13.9849C52.4062 14.7241 52.6213 15.5841 52.6213 16.5649V22.5566H48.9859ZM46.1248 22.8125C44.8772 22.8125 43.902 22.5353 43.1992 21.9809C42.5109 21.4123 42.1667 20.602 42.1667 19.5501C42.1667 18.4413 42.5109 17.624 43.1992 17.098C43.902 16.5578 44.8772 16.2877 46.1248 16.2877H49.287V18.484H47.6522C47.1502 18.484 46.763 18.5693 46.4905 18.7399C46.218 18.9104 46.0818 19.1521 46.0818 19.4648C46.0818 19.6781 46.175 19.8415 46.3615 19.9553C46.5479 20.069 46.806 20.1258 47.1359 20.1258C47.4944 20.1258 47.8027 20.0619 48.0609 19.9339C48.319 19.7918 48.5198 19.5999 48.6632 19.3582C48.8066 19.1023 48.8783 18.8109 48.8783 18.484H49.8894C49.8894 19.8629 49.5595 20.929 48.8998 21.6824C48.2401 22.4358 47.3151 22.8125 46.1248 22.8125ZM54.6628 22.5566V11.8952H58.5349V22.5566H54.6628ZM56.5988 10.8717C56.0252 10.8717 55.5232 10.6585 55.093 10.2321C54.6628 9.8056 54.4477 9.30807 54.4477 8.73946C54.4477 8.15664 54.6628 7.6591 55.093 7.24686C55.5232 6.82041 56.0252 6.60718 56.5988 6.60718C57.1868 6.60718 57.6887 6.82041 58.1046 7.24686C58.5349 7.6591 58.75 8.15664 58.75 8.73946C58.75 9.30807 58.5349 9.8056 58.1046 10.2321C57.6887 10.6585 57.1868 10.8717 56.5988 10.8717ZM64.7524 22.8125C64.0354 22.8125 63.3685 22.713 62.7519 22.514C62.1352 22.315 61.6046 22.0378 61.16 21.6824C60.7298 21.3128 60.4286 20.8721 60.2565 20.3604L63.3327 19.1663C63.4904 19.5501 63.7127 19.7989 63.9995 19.9126C64.2864 20.0121 64.5373 20.0619 64.7524 20.0619C64.9819 20.0619 65.1683 20.0121 65.3117 19.9126C65.4552 19.8131 65.5269 19.671 65.5269 19.4862C65.5269 19.2871 65.4265 19.1237 65.2257 18.9957C65.0293 18.8567 64.7299 18.738 64.3277 18.6398L63.4187 18.42C62.4579 18.1784 61.7336 17.759 61.2461 17.162C60.7585 16.5649 60.5147 15.8684 60.5147 15.0723C60.5147 13.9778 60.9162 13.132 61.7193 12.5349C62.5367 11.9379 63.641 11.6394 65.0321 11.6394C65.8782 11.6394 66.5881 11.746 67.1617 11.9592C67.7497 12.1582 68.2302 12.4425 68.603 12.8121C68.9759 13.1817 69.2627 13.6082 69.4635 14.0915L66.4734 15.2216C66.373 14.9373 66.2009 14.7312 65.9571 14.6032C65.7276 14.4753 65.4408 14.4113 65.0966 14.4113C64.8528 14.4113 64.6592 14.4682 64.5158 14.5819C64.3867 14.6956 64.3222 14.8307 64.3222 14.987C64.3222 15.1576 64.4226 15.3069 64.6234 15.4348L64.652 15.4497C64.8668 15.5584 65.1799 15.6672 65.5914 15.776L66.4734 15.9892C67.1331 16.1456 67.7067 16.3872 68.1943 16.7142C68.6819 17.0269 69.0619 17.4178 69.3344 17.8869C69.6069 18.356 69.7431 18.8962 69.7431 19.5075C69.7431 20.204 69.5352 20.8011 69.1193 21.2986C68.7034 21.7819 68.1226 22.1586 67.3769 22.4287C66.6311 22.6846 65.7563 22.8125 64.7524 22.8125ZM74.5019 27.0771C73.9999 27.0771 73.4693 26.9776 72.91 26.7786C72.3507 26.5938 71.9061 26.3947 71.5763 26.1815L73.0176 23.0897C73.1753 23.2176 73.3402 23.3172 73.5123 23.3882C73.6988 23.4735 73.8709 23.5162 74.0286 23.5162C74.2581 23.5162 74.4732 23.4593 74.674 23.3456C74.8839 23.2346 75.0461 23.049 75.1604 22.789L76.4594 19.7847L79.3635 11.8952H83.6658L79.0408 22.9404C78.711 23.7365 78.3668 24.4473 78.0083 25.0727C77.6558 25.6876 77.2133 26.172 76.6806 26.5258L76.653 26.544C76.1224 26.8994 75.4053 27.0771 74.5019 27.0771ZM75.4484 22.5566L70.2856 11.8952H74.5879L77.7931 19.7847L79.1053 22.5566H75.4484Z" fill="black" fill-opacity="0.2"/>
</g>
<defs>
<clipPath id="clip0_11959_164">
<rect width="104" height="30" fill="white"/>
</clipPath>
</defs>
</svg>
