<svg width="256" height="30" viewBox="0 0 256 30" fill="none" xmlns="http://www.w3.org/2000/svg">
<g clip-path="url(#clip0_11959_152)">
<path d="M72.2049 18.8139C72.5059 18.8139 72.7502 18.5698 72.7502 18.2686V10.8532C72.7502 10.552 72.5059 10.3079 72.2049 10.3079H71.6159C71.3146 10.3079 71.0706 10.552 71.0706 10.8532V18.2686C71.0706 18.5698 71.3146 18.8139 71.6159 18.8139H72.2049ZM85.0499 18.8139C85.3511 18.8139 85.5952 18.5698 85.5952 18.2686V10.8532C85.5952 10.552 85.3511 10.3079 85.0499 10.3079H84.4849C84.1839 10.3079 83.9396 10.552 83.9396 10.8532V15.9346L80.5607 10.5629C80.4609 10.4042 80.2867 10.3079 80.0991 10.3079H78.8822C78.5812 10.3079 78.3368 10.552 78.3368 10.8532V18.2686C78.3368 18.5698 78.5812 18.8139 78.8822 18.8139H79.4471C79.7484 18.8139 79.9925 18.5698 79.9925 18.2686V12.7793L83.6947 18.5626C83.7951 18.7192 83.9682 18.8139 84.1539 18.8139H85.0499ZM96.8849 11.8795C97.1862 11.8795 97.4302 11.6354 97.4302 11.3342V10.8532C97.4302 10.552 97.1862 10.3079 96.8849 10.3079H90.9331C90.6321 10.3079 90.3878 10.552 90.3878 10.8532V11.3342C90.3878 11.6354 90.6321 11.8795 90.9331 11.8795H93.0752V18.2686C93.0752 18.5698 93.3195 18.8139 93.6205 18.8139H94.1975C94.4988 18.8139 94.7428 18.5698 94.7428 18.2686V11.8795H96.8849ZM107 18.8139C107.301 18.8139 107.546 18.5698 107.546 18.2686V17.7996C107.546 17.4984 107.301 17.2543 107 17.2543H103.875V15.2867H106.653C106.954 15.2867 107.198 15.0426 107.198 14.7414V14.3564C107.198 14.0552 106.954 13.8111 106.653 13.8111H103.875V11.8675H107C107.301 11.8675 107.546 11.6234 107.546 11.3222V10.8532C107.546 10.552 107.301 10.3079 107 10.3079H102.764C102.463 10.3079 102.219 10.552 102.219 10.8532V18.2686C102.219 18.5698 102.463 18.8139 102.764 18.8139H107ZM116.813 18.516C116.906 18.6988 117.094 18.8139 117.299 18.8139H117.911C118.321 18.8139 118.584 18.3785 118.394 18.0154L116.989 15.3347C118.104 15.0108 118.8 14.111 118.8 12.9233C118.8 11.4476 117.745 10.3079 116.089 10.3079H113.311C113.01 10.3079 112.766 10.552 112.766 10.8532V18.2686C112.766 18.5698 113.01 18.8139 113.311 18.8139H113.888C114.189 18.8139 114.433 18.5698 114.433 18.2686V15.5387H115.297L116.813 18.516ZM114.433 14.111V11.7475H115.777C116.617 11.7475 117.109 12.2154 117.109 12.9353C117.109 13.6311 116.617 14.111 115.777 14.111H114.433ZM130.635 18.8139C130.936 18.8139 131.18 18.5698 131.18 18.2686V10.8532C131.18 10.552 130.936 10.3079 130.635 10.3079H130.07C129.768 10.3079 129.524 10.552 129.524 10.8532V15.9346L126.146 10.5629C126.046 10.4042 125.872 10.3079 125.684 10.3079H124.467C124.166 10.3079 123.922 10.552 123.922 10.8532V18.2686C123.922 18.5698 124.166 18.8139 124.467 18.8139H125.032C125.333 18.8139 125.577 18.5698 125.577 18.2686V12.7793L129.28 18.5626C129.38 18.7192 129.553 18.8139 129.739 18.8139H130.635ZM141.558 18.8139C141.859 18.8139 142.103 18.5698 142.103 18.2686V17.7996C142.103 17.4984 141.859 17.2543 141.558 17.2543H138.432V15.2867H141.21C141.511 15.2867 141.755 15.0426 141.755 14.7414V14.3564C141.755 14.0552 141.511 13.8111 141.21 13.8111H138.432V11.8675H141.558C141.859 11.8675 142.103 11.6234 142.103 11.3222V10.8532C142.103 10.552 141.859 10.3079 141.558 10.3079H137.322C137.021 10.3079 136.777 10.552 136.777 10.8532V18.2686C136.777 18.5698 137.021 18.8139 137.322 18.8139H141.558ZM153.017 11.8795C153.318 11.8795 153.562 11.6354 153.562 11.3342V10.8532C153.562 10.552 153.318 10.3079 153.017 10.3079H147.065C146.764 10.3079 146.52 10.552 146.52 10.8532V11.3342C146.52 11.6354 146.764 11.8795 147.065 11.8795H149.207V18.2686C149.207 18.5698 149.451 18.8139 149.752 18.8139H150.329C150.63 18.8139 150.875 18.5698 150.875 18.2686V11.8795H153.017Z" fill="#8989A2"/>
<path d="M168.32 18.9938C170.413 18.9938 171.612 17.7761 172.094 16.5946C172.204 16.3257 172.037 16.0365 171.759 15.9524L171.236 15.7945C170.945 15.7065 170.643 15.8777 170.497 16.1445C170.149 16.7831 169.466 17.3741 168.32 17.3741C166.952 17.3741 165.68 16.3784 165.68 14.5668C165.68 12.6352 167.024 11.7234 168.296 11.7234C169.447 11.7234 170.101 12.2707 170.43 12.8985C170.576 13.1768 170.888 13.3593 171.188 13.2648L171.708 13.1006C171.982 13.0143 172.146 12.7285 172.04 12.4616C171.559 11.2496 170.372 10.1278 168.296 10.1278C166.016 10.1278 163.965 11.8554 163.965 14.5668C163.965 17.2782 165.944 18.9938 168.32 18.9938ZM178.348 14.5548C178.348 12.6352 179.692 11.7234 180.999 11.7234C182.319 11.7234 183.663 12.6352 183.663 14.5548C183.663 16.4744 182.319 17.3861 180.999 17.3861C179.692 17.3861 178.348 16.4744 178.348 14.5548ZM176.632 14.5668C176.632 17.3022 178.696 18.9938 180.999 18.9938C183.315 18.9938 185.378 17.3022 185.378 14.5668C185.378 11.8194 183.315 10.1278 180.999 10.1278C178.696 10.1278 176.632 11.8194 176.632 14.5668ZM199.404 18.8138C199.705 18.8138 199.949 18.5697 199.949 18.2685V10.8531C199.949 10.5519 199.705 10.3078 199.404 10.3078H198.061C197.839 10.3078 197.639 10.4422 197.556 10.6479L195.198 16.4504L192.783 10.6436C192.698 10.4403 192.5 10.3078 192.279 10.3078H191.005C190.704 10.3078 190.46 10.5519 190.46 10.8531V18.2685C190.46 18.5697 190.704 18.8138 191.005 18.8138H191.498C191.799 18.8138 192.043 18.5697 192.043 18.2685V12.8992L194.351 18.477C194.436 18.6809 194.635 18.8138 194.855 18.8138H195.505C195.726 18.8138 195.925 18.6802 196.009 18.4756L198.318 12.8512V18.2685C198.318 18.5697 198.562 18.8138 198.863 18.8138H199.404ZM207.208 14.1829V11.7474H208.516C209.344 11.7474 209.847 12.2153 209.847 12.9712C209.847 13.703 209.344 14.1829 208.516 14.1829H207.208ZM208.72 15.6105C210.399 15.6105 211.515 14.5068 211.515 12.9592C211.515 11.4235 210.399 10.3078 208.72 10.3078H206.086C205.785 10.3078 205.54 10.5519 205.54 10.8531V18.2685C205.54 18.5697 205.785 18.8138 206.086 18.8138H206.651C206.952 18.8138 207.196 18.5697 207.196 18.2685V15.6105H208.72ZM219.595 19.0058C221.418 19.0058 222.87 17.89 222.87 15.8025V10.8531C222.87 10.5519 222.626 10.3078 222.325 10.3078H221.76C221.459 10.3078 221.215 10.5519 221.215 10.8531V15.6825C221.215 16.7983 220.603 17.3861 219.595 17.3861C218.611 17.3861 217.987 16.7983 217.987 15.6825V10.8531C217.987 10.5519 217.743 10.3078 217.442 10.3078H216.877C216.576 10.3078 216.332 10.5519 216.332 10.8531V15.8025C216.332 17.89 217.783 19.0058 219.595 19.0058ZM234.085 11.8794C234.386 11.8794 234.63 11.6353 234.63 11.3341V10.8531C234.63 10.5519 234.386 10.3078 234.085 10.3078H228.133C227.832 10.3078 227.588 10.5519 227.588 10.8531V11.3341C227.588 11.6353 227.832 11.8794 228.133 11.8794H230.275V18.2685C230.275 18.5697 230.519 18.8138 230.821 18.8138H231.397C231.698 18.8138 231.943 18.5697 231.943 18.2685V11.8794H234.085ZM244.2 18.8138C244.501 18.8138 244.745 18.5697 244.745 18.2685V17.7995C244.745 17.4983 244.501 17.2542 244.2 17.2542H241.074V15.2866H243.852C244.153 15.2866 244.398 15.0425 244.398 14.7413V14.3563C244.398 14.0551 244.153 13.811 243.852 13.811H241.074V11.8674H244.2C244.501 11.8674 244.745 11.6233 244.745 11.3221V10.8531C244.745 10.5519 244.501 10.3078 244.2 10.3078H239.964C239.663 10.3078 239.419 10.5519 239.419 10.8531V18.2685C239.419 18.5697 239.663 18.8138 239.964 18.8138H244.2ZM254.013 18.5159C254.106 18.6987 254.294 18.8138 254.499 18.8138H255.111C255.521 18.8138 255.784 18.3785 255.593 18.0153L254.188 15.3346C255.304 15.0107 256 14.1109 256 12.9232C256 11.4475 254.944 10.3078 253.289 10.3078H249.965V18.2685C249.965 18.5697 250.21 18.8138 250.511 18.8138H251.088C251.389 18.8138 251.633 18.5697 251.633 18.2685V15.5386H252.497L254.013 18.5159ZM251.633 14.1109V11.7474H252.977C253.817 11.7474 254.308 12.2153 254.308 12.9352C254.308 13.631 253.817 14.1109 252.977 14.1109H251.633Z" fill="#8989A2"/>
<path d="M47.5617 0C44.0501 0 40.2219 1.79952 36.1758 5.34401C34.2562 7.02357 32.5984 8.82308 31.3554 10.2627C31.3554 10.2627 31.3554 10.2627 31.3663 10.2736V10.2627C31.3663 10.2627 33.3292 12.4003 35.4996 14.6906C36.6666 13.3055 38.3462 11.4188 40.2764 9.71739C43.8756 6.56552 46.2202 5.90025 47.5617 5.90025C52.6115 5.90025 56.7121 9.9028 56.7121 14.8215C56.7121 19.7074 52.6006 23.71 47.5617 23.7427C47.3327 23.7427 47.0382 23.71 46.6674 23.6337C48.1398 24.2662 49.7212 24.7243 51.2263 24.7243C60.4746 24.7243 62.2851 18.6932 62.405 18.2569C62.6777 17.1554 62.8195 15.9993 62.8195 14.8106C62.8195 6.65275 55.9704 0 47.5617 0Z" fill="#8989A2"/>
<path d="M15.2577 29.6648C18.7695 29.6648 22.5976 27.8652 26.6438 24.3207C28.5633 22.6412 30.2211 20.8417 31.4641 19.4021C31.4641 19.4021 31.4641 19.4021 31.4532 19.3912V19.4021C31.4532 19.4021 29.4903 17.2645 27.3199 14.9742C26.153 16.3592 24.4734 18.246 22.543 19.9474C18.944 23.0992 16.5992 23.7645 15.2577 23.7645C10.2082 23.7536 6.10745 19.751 6.10745 14.8324C6.10745 9.9464 10.2191 5.94385 15.2577 5.91113C15.4868 5.91113 15.7812 5.94385 16.152 6.0202C14.6797 5.38764 13.0983 4.92957 11.5932 4.92957C2.34482 4.92957 0.545308 10.9607 0.414434 11.386C0.14178 12.4985 0 13.6436 0 14.8324C0 23.012 6.84907 29.6648 15.2577 29.6648Z" fill="#8989A2"/>
<path d="M51.2045 24.5934C46.4711 24.4734 41.5525 20.7435 40.5491 19.8165C37.9536 17.4171 31.9658 10.928 31.4971 10.4154C27.1127 5.4967 21.1689 0 15.2577 0H15.2468H15.2359C8.05967 0.0327184 2.02857 4.89687 0.414455 11.386C0.534422 10.9607 2.90107 4.80961 11.5824 5.02775C16.3156 5.14772 21.2561 8.93214 22.2704 9.85917C24.8661 12.2585 30.8536 18.7477 31.3226 19.2603C35.7068 24.168 41.6506 29.6648 47.5617 29.6648H47.5726H47.5835C54.7598 29.6321 60.8018 24.7679 62.405 18.2787C62.2742 18.7041 59.8965 24.8006 51.2045 24.5934Z" fill="#8989A2"/>
</g>
<defs>
<clipPath id="clip0_11959_152">
<rect width="256" height="30" fill="white"/>
</clipPath>
</defs>
</svg>
