<svg width="170" height="31" viewBox="0 0 170 31" fill="none" xmlns="http://www.w3.org/2000/svg">
<g clip-path="url(#clip0_11959_128)">
<path d="M46.1686 10.3072C47.8915 10.3072 49.6938 10.7052 51.1365 11.5402V16.9913C49.7741 16.0366 48.3716 15.5594 46.8496 15.5594C43.8049 15.5594 41.4813 17.668 41.4813 20.6523C41.4813 23.5969 43.7647 25.7452 46.8496 25.7452C48.4118 25.7452 49.9348 25.1087 51.1766 24.2334V29.7244C49.5742 30.5993 47.8112 30.9977 46.0882 30.9977C39.9995 30.9977 35.5924 26.8196 35.5924 20.6523C35.5924 14.7234 39.9593 10.3072 46.1686 10.3072ZM62.8303 10.3072C68.9602 10.3072 73.5672 14.8032 73.5672 20.6523C73.5672 26.5014 68.9602 30.9977 62.8303 30.9977C56.7013 30.9977 52.094 26.5014 52.094 20.6523C52.094 14.8032 56.7013 10.3072 62.8303 10.3072ZM62.8303 25.7063C65.5546 25.7063 67.7978 23.4772 67.7978 20.6523C67.7978 17.8276 65.5546 15.5993 62.8303 15.5993C60.1066 15.5993 57.8624 17.8276 57.8624 20.6523C57.8624 23.4772 60.1066 25.7063 62.8303 25.7063ZM96.3794 2.62807V30.4806H90.5698V27.8545C89.2085 29.8441 86.7644 30.9578 84.1606 30.9578C78.8322 30.9578 74.7867 26.5014 74.7867 20.6523C74.7867 14.8431 78.8322 10.3471 84.1606 10.3471C86.7644 10.3471 89.2085 11.3417 90.5698 13.3706V2.62807H96.3794ZM85.6823 25.7452C88.5275 25.7452 90.7707 23.4772 90.7707 20.6523C90.7707 17.8276 88.5275 15.5594 85.6823 15.5594C82.8385 15.5594 80.5953 17.8276 80.5953 20.6523C80.5953 23.4772 82.8385 25.7452 85.6823 25.7452ZM99.0911 30.4806V10.8239H104.94V30.4806H99.0911ZM120.54 10.8239H126.389V30.4806H120.54V27.9742C119.378 29.8441 117.375 30.9977 114.771 30.9977C110.284 30.9977 107.521 27.8944 107.521 22.9601V10.8239H113.369V21.5674C113.369 24.1536 114.651 25.6664 116.854 25.6664C119.098 25.6664 120.54 23.995 120.54 21.2093V10.8239ZM134.95 30.4806H129.102V10.8239H134.95V13.2914C135.992 11.5003 137.915 10.3072 140.519 10.3072C143.203 10.3072 145.246 11.5802 146.328 13.7287C147.57 11.66 149.813 10.3072 152.698 10.3072C157.224 10.3072 159.788 13.3706 159.788 18.1459V30.4806H153.939V19.4987C153.939 17.0711 152.818 15.5993 150.775 15.5993C148.772 15.5993 147.409 17.2307 147.369 19.8572V30.4806H141.52V19.5778C141.52 17.0711 140.399 15.5993 138.396 15.5993C136.313 15.5993 134.95 17.27 134.95 19.9759V30.4806ZM166.71 2.90279V9.19249H164.876V8.35285C164.44 8.98967 163.659 9.34584 162.825 9.34584C161.12 9.34584 159.826 7.91951 159.826 6.04764C159.826 4.18929 161.12 2.75043 162.825 2.75043C163.659 2.75043 164.44 3.06867 164.876 3.71769V2.90279H166.71ZM163.312 7.67811C164.223 7.67811 164.94 6.95224 164.94 6.04764C164.94 5.14435 164.223 4.41816 163.312 4.41816C162.402 4.41816 161.684 5.14435 161.684 6.04764C161.684 6.95224 162.402 7.67811 163.312 7.67811ZM167.975 9.19249V2.90279H169.847V9.19249H167.975ZM168.911 2.16439C168.308 2.16439 167.821 1.66773 167.821 1.08269C167.821 0.49666 168.308 0 168.911 0C169.514 0 170 0.49666 170 1.08269C170 1.66773 169.514 2.16439 168.911 2.16439ZM102.016 2.58619C103.898 2.58619 105.42 4.13883 105.42 5.96882C105.42 7.79881 103.898 9.35046 102.016 9.35046C100.133 9.35046 98.6099 7.79881 98.6099 5.96882C98.6099 4.13883 100.133 2.58619 102.016 2.58619Z" fill="#7962FE"/>
<path d="M10.3551 10.4443C11.8422 10.4443 13.2524 10.7566 14.53 11.3179C11.6991 12.9128 9.72387 16.5259 9.72387 20.7294C9.72387 24.9322 11.7011 28.546 14.53 30.1409C13.2524 30.7015 11.8422 31.0145 10.3551 31.0145C4.63648 31.0145 0 26.4093 0 20.7294C0 15.0498 4.63648 10.4443 10.3551 10.4443Z" fill="url(#paint0_radial_11959_128)"/>
<path d="M18.521 14.4087C17.4738 13.0777 16.1065 12.0085 14.529 11.3179C15.5235 10.7566 16.6215 10.4443 17.7766 10.4443C18.8663 10.4443 19.9083 10.7237 20.8552 11.2246C19.9295 11.9093 19.1263 13.0157 18.5194 14.4087H18.521Z" fill="url(#paint1_radial_11959_128)"/>
<path d="M18.5194 27.0502C19.1263 28.4432 19.9295 29.547 20.8552 30.2343C19.9063 30.7369 18.8663 31.0145 17.7766 31.0145C16.6195 31.0145 15.5218 30.7022 14.529 30.1409C16.1035 29.4504 17.4738 28.3812 18.521 27.0502H18.5194Z" fill="url(#paint2_radial_11959_128)"/>
<path d="M9.72287 20.7295C9.72287 16.526 11.7001 12.9128 14.529 11.318C16.1035 12.0086 17.4738 13.0777 18.521 14.4088C17.7587 16.1537 17.3051 18.3461 17.3051 20.7295C17.3051 23.1118 17.7603 25.3053 18.521 27.0495C17.4738 28.3812 16.1065 29.4494 14.529 30.1409C11.6985 28.5461 9.72287 24.9323 9.72287 20.7295Z" fill="#7962FE"/>
<path d="M24.7938 25.7736C25.0866 27.3242 25.5106 28.6249 26.0219 29.5427C25.157 30.4763 24.143 31.0135 23.0566 31.0135C22.2773 31.0135 21.5345 30.7359 20.8562 30.2333C22.5273 29.3501 23.9125 27.7684 24.7938 25.7762V25.7736Z" fill="url(#paint3_radial_11959_128)"/>
<path d="M20.8562 11.2246C21.5345 10.722 22.2773 10.4443 23.0566 10.4443C24.1413 10.4443 25.1553 10.9819 26.0219 11.9155C25.5123 12.833 25.0883 14.133 24.7938 15.6837C23.9125 13.6904 22.5273 12.1094 20.8562 11.2266V11.2246Z" fill="url(#paint4_radial_11959_128)"/>
<path d="M18.521 27.0485C19.8903 25.3046 20.7088 23.1118 20.7088 20.7285C20.7088 18.3454 19.8903 16.1527 18.521 14.4088C19.129 13.0167 19.9315 11.9109 20.8579 11.224C22.5283 12.1068 23.9135 13.6888 24.7948 15.6811C24.5115 17.1714 24.3512 18.8932 24.3512 20.7268C24.3512 22.5604 24.5135 24.2813 24.7948 25.7719C23.9135 27.7648 22.5283 29.3468 20.8579 30.2296C19.9315 29.5443 19.129 28.4389 18.521 27.0449V27.0485Z" fill="#7962FE"/>
<path d="M18.52 27.0502C17.7587 25.3053 17.3051 23.1128 17.3051 20.7295C17.3051 18.3471 17.7604 16.1543 18.52 14.4094C19.8903 16.1543 20.7088 18.3471 20.7088 20.7295C20.7088 23.1128 19.8903 25.3053 18.52 27.0502Z" fill="#321BB2"/>
<path d="M26.0219 11.9155C26.5416 10.9819 27.1495 10.4443 27.802 10.4443C29.7088 10.4443 31.2541 15.0498 31.2541 20.7294C31.2541 26.4093 29.7088 31.0145 27.802 31.0145C27.1512 31.0145 26.5416 30.4763 26.0219 29.5433C27.6924 27.7427 28.81 24.4712 28.81 20.7294C28.81 16.988 27.6924 13.7145 26.0219 11.9155Z" fill="#05E6AD"/>
<path d="M26.0219 11.9155C26.5416 10.9819 27.1495 10.4443 27.802 10.4443C29.7088 10.4443 31.2541 15.0498 31.2541 20.7294C31.2541 26.4093 29.7088 31.0145 27.802 31.0145C27.1512 31.0145 26.5416 30.4763 26.0219 29.5433C27.6924 27.7427 28.81 24.4712 28.81 20.7294C28.81 16.988 27.6924 13.7145 26.0219 11.9155Z" fill="url(#paint5_radial_11959_128)"/>
<path d="M25.831 20.7305C25.831 18.8959 25.4542 17.175 24.7938 15.6847C25.0866 14.1337 25.5106 12.8341 26.0229 11.9163C27.6931 13.7152 28.8107 16.9907 28.8107 20.7305C28.8107 24.4693 27.6931 27.7454 26.0229 29.5444C25.5123 28.6259 25.0893 27.3259 24.7938 25.7752C25.4525 24.2849 25.831 22.5641 25.831 20.7305Z" fill="#7962FE"/>
<path d="M24.7938 25.7745C24.5109 24.2839 24.3502 22.5631 24.3502 20.7295C24.3502 18.8952 24.5126 17.174 24.7938 15.6837C25.4525 17.174 25.831 18.8952 25.831 20.7295C25.831 22.5631 25.4542 24.2839 24.7938 25.7745Z" fill="#321BB2"/>
</g>
<defs>
<radialGradient id="paint0_radial_11959_128" cx="0" cy="0" r="1" gradientUnits="userSpaceOnUse" gradientTransform="translate(14.5369 20.7576) rotate(-179.205) scale(11.4711 16.6188)">
<stop stop-color="#6447FF"/>
<stop offset="0.0667" stop-color="#6348FE"/>
<stop offset="0.1333" stop-color="#614DFC"/>
<stop offset="0.2" stop-color="#5C54F8"/>
<stop offset="0.2667" stop-color="#565EF3"/>
<stop offset="0.3333" stop-color="#4E6CEC"/>
<stop offset="0.4" stop-color="#447BE4"/>
<stop offset="0.4667" stop-color="#3A8DDB"/>
<stop offset="0.5333" stop-color="#2F9FD1"/>
<stop offset="0.6" stop-color="#25B1C8"/>
<stop offset="0.6667" stop-color="#1BC0C0"/>
<stop offset="0.7333" stop-color="#13CEB9"/>
<stop offset="0.8" stop-color="#0DD8B4"/>
<stop offset="0.8667" stop-color="#08DFB0"/>
<stop offset="0.9333" stop-color="#06E4AE"/>
<stop offset="1" stop-color="#05E5AD"/>
</radialGradient>
<radialGradient id="paint1_radial_11959_128" cx="0" cy="0" r="1" gradientUnits="userSpaceOnUse" gradientTransform="translate(22.053 13.2005) rotate(-164.157) scale(6.37625 6.51751)">
<stop stop-color="#6447FF"/>
<stop offset="0.0667" stop-color="#6348FE"/>
<stop offset="0.1333" stop-color="#614DFC"/>
<stop offset="0.2" stop-color="#5C54F8"/>
<stop offset="0.2667" stop-color="#565EF3"/>
<stop offset="0.3333" stop-color="#4E6CEC"/>
<stop offset="0.4" stop-color="#447BE4"/>
<stop offset="0.4667" stop-color="#3A8DDB"/>
<stop offset="0.5333" stop-color="#2F9FD1"/>
<stop offset="0.6" stop-color="#25B1C8"/>
<stop offset="0.6667" stop-color="#1BC0C0"/>
<stop offset="0.7333" stop-color="#13CEB9"/>
<stop offset="0.8" stop-color="#0DD8B4"/>
<stop offset="0.8667" stop-color="#08DFB0"/>
<stop offset="0.9333" stop-color="#06E4AE"/>
<stop offset="1" stop-color="#05E5AD"/>
</radialGradient>
<radialGradient id="paint2_radial_11959_128" cx="0" cy="0" r="1" gradientUnits="userSpaceOnUse" gradientTransform="translate(22.053 29.8061) rotate(-164.157) scale(6.37625 6.5175)">
<stop stop-color="#6447FF"/>
<stop offset="0.0667" stop-color="#6348FE"/>
<stop offset="0.1333" stop-color="#614DFC"/>
<stop offset="0.2" stop-color="#5C54F8"/>
<stop offset="0.2667" stop-color="#565EF3"/>
<stop offset="0.3333" stop-color="#4E6CEC"/>
<stop offset="0.4" stop-color="#447BE4"/>
<stop offset="0.4667" stop-color="#3A8DDB"/>
<stop offset="0.5333" stop-color="#2F9FD1"/>
<stop offset="0.6" stop-color="#25B1C8"/>
<stop offset="0.6667" stop-color="#1BC0C0"/>
<stop offset="0.7333" stop-color="#13CEB9"/>
<stop offset="0.8" stop-color="#0DD8B4"/>
<stop offset="0.8667" stop-color="#08DFB0"/>
<stop offset="0.9333" stop-color="#06E4AE"/>
<stop offset="1" stop-color="#05E5AD"/>
</radialGradient>
<radialGradient id="paint3_radial_11959_128" cx="0" cy="0" r="1" gradientUnits="userSpaceOnUse" gradientTransform="translate(27.6032 29.5454) rotate(-156.59) scale(6.11519 9.02507)">
<stop stop-color="#6447FF"/>
<stop offset="0.0667" stop-color="#6348FE"/>
<stop offset="0.1333" stop-color="#614DFC"/>
<stop offset="0.2" stop-color="#5C54F8"/>
<stop offset="0.2667" stop-color="#565EF3"/>
<stop offset="0.3333" stop-color="#4E6CEC"/>
<stop offset="0.4" stop-color="#447BE4"/>
<stop offset="0.4667" stop-color="#3A8DDB"/>
<stop offset="0.5333" stop-color="#2F9FD1"/>
<stop offset="0.6" stop-color="#25B1C8"/>
<stop offset="0.6667" stop-color="#1BC0C0"/>
<stop offset="0.7333" stop-color="#13CEB9"/>
<stop offset="0.8" stop-color="#0DD8B4"/>
<stop offset="0.8667" stop-color="#08DFB0"/>
<stop offset="0.9333" stop-color="#06E4AE"/>
<stop offset="1" stop-color="#05E5AD"/>
</radialGradient>
<radialGradient id="paint4_radial_11959_128" cx="0" cy="0" r="1" gradientUnits="userSpaceOnUse" gradientTransform="translate(27.6032 14.2159) rotate(-156.59) scale(6.11519 9.02508)">
<stop stop-color="#6447FF"/>
<stop offset="0.0667" stop-color="#6348FE"/>
<stop offset="0.1333" stop-color="#614DFC"/>
<stop offset="0.2" stop-color="#5C54F8"/>
<stop offset="0.2667" stop-color="#565EF3"/>
<stop offset="0.3333" stop-color="#4E6CEC"/>
<stop offset="0.4" stop-color="#447BE4"/>
<stop offset="0.4667" stop-color="#3A8DDB"/>
<stop offset="0.5333" stop-color="#2F9FD1"/>
<stop offset="0.6" stop-color="#25B1C8"/>
<stop offset="0.6667" stop-color="#1BC0C0"/>
<stop offset="0.7333" stop-color="#13CEB9"/>
<stop offset="0.8" stop-color="#0DD8B4"/>
<stop offset="0.8667" stop-color="#08DFB0"/>
<stop offset="0.9333" stop-color="#06E4AE"/>
<stop offset="1" stop-color="#05E5AD"/>
</radialGradient>
<radialGradient id="paint5_radial_11959_128" cx="0" cy="0" r="1" gradientUnits="userSpaceOnUse" gradientTransform="translate(28.0411 20.5987) scale(3.65121 17.8893)">
<stop stop-color="#05E5AD"/>
<stop offset="0.32" stop-color="#05E5AD" stop-opacity="0"/>
<stop offset="0.9028" stop-color="#6447FF"/>
</radialGradient>
<clipPath id="clip0_11959_128">
<rect width="170" height="31" fill="white"/>
</clipPath>
</defs>
</svg>
