<svg width="118" height="34" viewBox="0 0 118 34" fill="none" xmlns="http://www.w3.org/2000/svg">
<g clip-path="url(#clip0_11959_32)">
<path d="M5.6137 23.4989H16.0275C18.9032 23.4989 21.2344 25.807 21.2344 28.6543C21.2344 31.5015 18.9032 33.8097 16.0275 33.8097H5.6137C2.738 33.8097 0.406784 31.5015 0.406784 28.6543C0.406784 25.807 2.738 23.4989 5.6137 23.4989Z" fill="#1AD1A5"/>
<path d="M10.8206 21.0242C16.572 21.0242 21.2344 16.4079 21.2344 10.7135C21.2344 5.019 16.572 0.40271 10.8206 0.40271C5.06921 0.40271 0.406784 5.019 0.406784 10.7135C0.406784 16.4079 5.06921 21.0242 10.8206 21.0242Z" fill="white"/>
<path d="M10.8206 0C16.7967 0 21.6412 4.79661 21.6412 10.7135C21.6412 16.6304 16.7967 21.4271 10.8206 21.4271C4.84455 21.4271 0 16.6304 0 10.7135C0 4.79661 4.84455 0 10.8206 0ZM10.8206 0.402764C5.06922 0.402764 0.40679 5.01905 0.40679 10.7135C0.40679 16.408 5.06922 21.0243 10.8206 21.0243C16.572 21.0243 21.2344 16.408 21.2344 10.7135C21.2344 5.01905 16.572 0.402764 10.8206 0.402764Z" fill="black" fill-opacity="0.2"/>
<path d="M10.8206 15.3328C13.3972 15.3328 15.486 13.2647 15.486 10.7136C15.486 8.16246 13.3972 6.09436 10.8206 6.09436C8.244 6.09436 6.15523 8.16246 6.15523 10.7136C6.15523 13.2647 8.244 15.3328 10.8206 15.3328Z" fill="#FF9903"/>
<path d="M103.424 25.8542C101.911 25.8542 100.609 25.5803 99.5187 25.0325C98.4285 24.4848 97.5906 23.7034 97.0048 22.6884C96.4353 21.6574 96.1505 20.433 96.1505 19.0152H100.666C100.666 19.5791 100.78 20.0624 101.008 20.4652C101.235 20.8679 101.553 21.174 101.959 21.3835C102.383 21.5929 102.887 21.6976 103.473 21.6976C104.059 21.6976 104.563 21.5929 104.986 21.3835C105.409 21.174 105.726 20.8679 105.938 20.4652C106.166 20.0624 106.28 19.5791 106.28 19.0152H110.795C110.795 20.433 110.502 21.6574 109.916 22.6884C109.331 23.7034 108.484 24.4848 107.378 25.0325C106.288 25.5803 104.97 25.8542 103.424 25.8542ZM96.1505 19.0152V8.64807H100.666V19.0152H96.1505ZM106.28 19.0152V8.64807H110.795V19.0152H106.28ZM113.485 25.5642V8.64807H118V25.5642H113.485Z" fill="#1AD1A5"/>
<path d="M42.0946 25.5642L41.875 23.3168V8.64812H46.2683V25.5642H42.0946ZM38.6288 25.8542C37.4735 25.8542 36.4809 25.6045 35.6511 25.1051C34.8375 24.6056 34.211 23.8807 33.7717 22.9301C33.3324 21.9796 33.1127 20.8438 33.1127 19.5228C33.1127 18.2019 33.3271 17.0775 33.7557 16.1496L33.7717 16.1154C34.211 15.1648 34.8375 14.4399 35.6511 13.9404C36.4809 13.441 37.4735 13.1913 38.6288 13.1913C39.6376 13.1913 40.4675 13.441 41.1183 13.9404C41.7855 14.4399 42.2736 15.1648 42.5828 16.1154C42.9082 17.0498 43.0709 18.1856 43.0709 19.5228C43.0709 20.8438 42.9082 21.9796 42.5828 22.9301C42.2775 23.8686 41.7978 24.5872 41.1436 25.086L41.1183 25.1051C40.4675 25.6045 39.6376 25.8542 38.6288 25.8542ZM39.8003 21.8427C40.2071 21.8427 40.5651 21.746 40.8743 21.5527C41.1997 21.3432 41.4519 21.0694 41.6309 20.731C41.8099 20.3766 41.8994 19.9738 41.8994 19.5228C41.8994 19.0717 41.8099 18.6769 41.6309 18.3386C41.4519 17.9842 41.1997 17.7103 40.8743 17.517C40.5651 17.3237 40.199 17.227 39.7759 17.227C39.3854 17.227 39.0356 17.3237 38.7264 17.517C38.4173 17.7103 38.1732 17.9842 37.9942 18.3386C37.8152 18.6769 37.7176 19.0717 37.7013 19.5228C37.7176 19.9738 37.8152 20.3766 37.9942 20.731C38.1732 21.0694 38.4173 21.3432 38.7264 21.5527C39.0519 21.746 39.4098 21.8427 39.8003 21.8427ZM55.5801 25.5642L55.4581 22.7851V19.6436C55.4581 19.0797 55.4256 18.5722 55.3605 18.1211C55.2954 17.67 55.1327 17.3156 54.8723 17.0578C54.612 16.8001 54.1889 16.6712 53.6031 16.6712C53.1963 16.6712 52.8628 16.7678 52.6024 16.9612C52.3421 17.1545 52.1224 17.38 51.9434 17.6378L48.1115 16.4295C48.4532 15.769 48.8762 15.1971 49.3807 14.7137C49.9013 14.2304 50.5034 13.8599 51.1868 13.6021C51.8865 13.3282 52.6594 13.1913 53.5055 13.1913C54.8072 13.1913 55.9218 13.4249 56.8493 13.8921C57.7768 14.3593 58.4846 15.0118 58.9728 15.8495C59.4609 16.6873 59.705 17.662 59.705 18.7736V25.5642H55.5801ZM52.3339 25.8542C50.9183 25.8542 49.8119 25.54 49.0145 24.9117C48.2335 24.2673 47.843 23.349 47.843 22.1568C47.843 20.9002 48.2335 19.9738 49.0145 19.3778C49.8119 18.7656 50.9183 18.4595 52.3339 18.4595H55.9218V20.9485H54.0669C53.4974 20.9485 53.058 21.0452 52.7489 21.2385C52.4397 21.4319 52.2851 21.7057 52.2851 22.0602C52.2851 22.3018 52.3909 22.4871 52.6024 22.616C52.814 22.7449 53.1069 22.8093 53.4811 22.8093C53.8879 22.8093 54.2377 22.7368 54.5306 22.5918C54.8235 22.4307 55.0513 22.2132 55.214 21.9393C55.3767 21.6493 55.4581 21.3191 55.4581 20.9485H56.6052C56.6052 22.5113 56.231 23.7196 55.4825 24.5734C54.734 25.4273 53.6845 25.8542 52.3339 25.8542ZM62.0212 25.5642V13.4813H66.4146V25.5642H62.0212ZM64.2179 12.3213C63.567 12.3213 62.9975 12.0797 62.5094 11.5964C62.0212 11.113 61.7772 10.5492 61.7772 9.90474C61.7772 9.24421 62.0212 8.68034 62.5094 8.21313C62.9975 7.72982 63.567 7.48816 64.2179 7.48816C64.885 7.48816 65.4546 7.72982 65.9264 8.21313C66.4146 8.68034 66.6587 9.24421 66.6587 9.90474C66.6587 10.5492 66.4146 11.113 65.9264 11.5964C65.4546 12.0797 64.885 12.3213 64.2179 12.3213ZM73.4691 25.8542C72.6555 25.8542 71.8989 25.7414 71.1992 25.5159C70.4996 25.2903 69.8975 24.9762 69.3931 24.5734C68.9049 24.1545 68.5632 23.6551 68.368 23.0751L71.8582 21.7218C72.0372 22.1568 72.2894 22.4388 72.6149 22.5676C72.9403 22.6804 73.2251 22.7368 73.4691 22.7368C73.7295 22.7368 73.941 22.6804 74.1037 22.5676C74.2664 22.4549 74.3478 22.2938 74.3478 22.0843C74.3478 21.8588 74.2339 21.6735 74.0061 21.5285C73.7832 21.3709 73.4436 21.2364 72.9872 21.1251L71.9559 20.876C70.8657 20.6022 70.044 20.1269 69.4907 19.4503C68.9375 18.7736 68.6609 17.9842 68.6609 17.082C68.6609 15.8415 69.1165 14.8829 70.0277 14.2063C70.9552 13.5296 72.2081 13.1913 73.7864 13.1913C74.7465 13.1913 75.5519 13.3121 76.2028 13.5538C76.8699 13.7793 77.415 14.1015 77.8381 14.5204C78.2611 14.9393 78.5865 15.4226 78.8143 15.9704L75.4217 17.2512C75.3078 16.9289 75.1126 16.6953 74.8359 16.5504C74.5756 16.4054 74.2502 16.3329 73.8596 16.3329C73.583 16.3329 73.3634 16.3973 73.2006 16.5262C73.0542 16.6551 72.981 16.8081 72.981 16.9853C72.981 17.1787 73.0949 17.3478 73.3227 17.4928L73.3552 17.5096C73.5988 17.6329 73.9541 17.7562 74.421 17.8795L75.4217 18.1211C76.1702 18.2983 76.8211 18.5722 77.3743 18.9428C77.9275 19.2972 78.3587 19.7402 78.6679 20.2719C78.9771 20.8035 79.1316 21.4157 79.1316 22.1085C79.1316 22.8979 78.8957 23.5746 78.4238 24.1384C77.952 24.6862 77.293 25.1131 76.4468 25.4192C75.6007 25.7092 74.6081 25.8542 73.4691 25.8542ZM84.531 30.6874C83.9615 30.6874 83.3594 30.5746 82.7248 30.3491C82.0902 30.1396 81.5858 29.9141 81.2116 29.6724L82.8469 26.1684C83.0258 26.3134 83.213 26.4261 83.4082 26.5067C83.6198 26.6033 83.815 26.6517 83.994 26.6517C84.2544 26.6517 84.4984 26.5872 84.7262 26.4584C84.9645 26.3325 85.1485 26.1223 85.2782 25.8276L86.752 22.4227L90.047 13.4813H94.9285L89.6809 25.9992C89.3067 26.9014 88.9162 27.7069 88.5094 28.4158C88.1095 29.1126 87.6074 29.6616 87.0031 30.0626L86.9717 30.0832C86.3697 30.486 85.5561 30.6874 84.531 30.6874ZM85.6049 25.5642L79.7471 13.4813H84.6286L88.2653 22.4227L89.7542 25.5642H85.6049Z" fill="black"/>
</g>
<defs>
<clipPath id="clip0_11959_32">
<rect width="118" height="34" fill="white"/>
</clipPath>
</defs>
</svg>
