<svg width="162" height="30" viewBox="0 0 162 30" fill="none" xmlns="http://www.w3.org/2000/svg">
<g clip-path="url(#clip0_11959_142)">
<path opacity="0.98" d="M14.9615 0C6.70121 0 0 6.68813 0 14.9323C0 23.1766 6.70121 29.8647 14.9615 29.8647C23.2218 29.8647 29.923 23.1766 29.923 14.9323C29.923 6.68813 23.2218 0 14.9615 0ZM14.182 26.9022V17.5358H8.96494L16.4607 2.96253V12.3289H21.4828L14.182 26.9022Z" fill="#009688"/>
<path d="M41.8712 27.733V1.94566H57.4559V5.03419H45.4878V12.8113H56.1137V15.8627H45.4878V27.733H41.8712ZM66.3417 25.2399L66.8738 25.2381C67.4774 25.2338 68.0209 25.222 68.5042 25.2027C69.1504 25.1531 69.6848 25.0787 70.1074 24.9794V19.2117C69.8588 19.0876 69.4487 18.9884 68.877 18.914C68.3302 18.8148 67.6591 18.7651 66.8637 18.7651C66.3417 18.7651 65.7824 18.8023 65.1859 18.8768C64.6142 18.9512 64.0798 19.1124 63.5827 19.3605C63.1104 19.5838 62.7127 19.9063 62.3896 20.328C62.0665 20.7249 61.9049 21.2583 61.9049 21.9281C61.9049 23.1685 62.3026 24.0367 63.098 24.5329C63.8934 25.0042 64.9746 25.2399 66.3417 25.2399ZM66.0434 7.89946C67.3484 7.89946 68.4567 8.06298 69.3684 8.39004L69.5481 8.45763C70.4529 8.78178 71.1844 9.24639 71.7427 9.85148L71.8597 9.98329C72.4563 10.6283 72.8788 11.4097 73.1274 12.3276C73.3759 13.2207 73.5002 14.213 73.5002 15.3045V27.3981L72.8291 27.5142C72.6501 27.546 72.4513 27.5817 72.2326 27.6214L71.8271 27.6772C71.4077 27.733 70.9463 27.7889 70.4429 27.8447C69.7718 27.9191 69.0386 27.9811 68.2432 28.0307C67.4726 28.1052 66.7021 28.1424 65.9316 28.1424C64.8379 28.1424 63.8313 28.0307 62.9116 27.8075C61.9919 27.5842 61.1965 27.2369 60.5254 26.7656C59.8543 26.2694 59.3323 25.6244 58.9595 24.8306C58.5866 24.0367 58.4002 23.0816 58.4002 21.9653C58.4002 20.8986 58.6115 19.9807 59.0341 19.2117C59.4815 18.4426 60.078 17.8225 60.8237 17.3511C61.5694 16.8798 62.4393 16.5325 63.4336 16.3092C64.4278 16.0859 65.4717 15.9743 66.5654 15.9743C66.9134 15.9743 67.2738 15.9991 67.6466 16.0487C68.0195 16.0735 68.3675 16.1231 68.6906 16.1976L69.022 16.2472C69.1794 16.272 69.3244 16.2968 69.457 16.3216L69.9641 16.4249C70.0223 16.4377 70.0701 16.4487 70.1074 16.458V15.4905C70.1074 14.92 70.0452 14.3618 69.921 13.816C69.7967 13.2455 69.573 12.7493 69.2498 12.3276C68.9267 11.8811 68.4793 11.5338 67.9076 11.2857C67.3608 11.0128 66.64 10.8764 65.7452 10.8764C64.6971 10.8764 63.7638 10.9493 62.9455 11.0952L62.3759 11.2014C61.7033 11.332 61.1859 11.4717 60.8237 11.6206L60.4136 8.75532C60.861 8.55686 61.6066 8.3708 62.6506 8.19715C63.5901 8.01853 64.6002 7.9203 65.6807 7.90243L66.0434 7.89946ZM83.7341 25.2399C85.1509 25.2399 86.1948 25.0538 86.8659 24.6817C87.5619 24.3096 87.9099 23.7142 87.9099 22.8956C87.9099 22.0521 87.5743 21.3823 86.9032 20.8862C86.2321 20.39 85.126 19.8319 83.5849 19.2117C82.8393 18.914 82.1184 18.6163 81.4225 18.3186C80.7514 17.9961 80.1672 17.624 79.6701 17.2023C79.173 16.7805 78.7753 16.272 78.477 15.6766C78.1788 15.0812 78.0296 14.3494 78.0296 13.4811C78.0296 11.7694 78.6635 10.4174 79.9311 9.42512C81.1988 8.40801 82.9262 7.89946 85.1136 7.89946C85.6604 7.89946 86.2072 7.93667 86.7541 8.01109C87.3009 8.06071 87.8104 8.13513 88.2827 8.23436C88.6875 8.29815 89.0466 8.37105 89.3601 8.45307L89.7764 8.56693C90.0234 8.6367 90.2215 8.6995 90.3706 8.75532L89.7368 11.7322C89.3639 11.5338 88.7798 11.3353 87.9844 11.1368C87.189 10.9136 86.2321 10.8019 85.1136 10.8019C84.1442 10.8019 83.2991 11.0004 82.5783 11.3973C81.8574 11.7694 81.497 12.3648 81.497 13.1835C81.497 13.6052 81.5716 13.9773 81.7207 14.2998C81.8947 14.6223 82.1433 14.92 82.4664 15.1929C82.8144 15.4409 83.237 15.6766 83.7341 15.8999C84.2312 16.1231 84.8277 16.3588 85.5237 16.6069C86.4434 16.9542 87.2636 17.3015 87.9844 17.6488C88.7053 17.9713 89.3142 18.3558 89.8113 18.8023C90.3333 19.2489 90.731 19.7946 91.0044 20.4396C91.2778 21.0598 91.4146 21.8289 91.4146 22.7467C91.4146 24.5329 90.7434 25.8849 89.4012 26.8028C88.0839 27.7206 86.1948 28.1796 83.7341 28.1796C82.1048 28.1796 80.8119 28.0452 79.8556 27.7766L79.0747 27.5507C78.4453 27.3644 77.9975 27.2143 77.7314 27.1005L78.3652 24.1236L78.8416 24.2972C79.2117 24.4295 79.6867 24.5949 80.2667 24.7934C81.0854 25.0735 82.1574 25.2219 83.4826 25.2383L83.7341 25.2399ZM99.0694 8.3832H106.414V11.2857H99.0694V20.2164C99.0694 21.1839 99.144 21.9901 99.2931 22.6351C99.4422 23.2553 99.666 23.7514 99.9642 24.1236C100.262 24.4709 100.635 24.7189 101.083 24.8678C101.53 25.0166 102.052 25.091 102.649 25.091C103.693 25.091 104.525 24.9794 105.147 24.7561L106.489 24.2352L107.16 27.1005C106.812 27.2741 106.203 27.485 105.333 27.733C104.463 28.0059 103.469 28.1424 102.35 28.1424C101.033 28.1424 99.9394 27.9811 99.0694 27.6586C98.2243 27.3113 97.5408 26.8028 97.0188 26.133C96.4968 25.4632 96.124 24.6445 95.9003 23.677C95.7014 22.6847 95.602 21.5436 95.602 20.2536V2.98757L99.0694 2.39219V8.3832ZM128.313 27.733C127.89 26.6167 127.493 25.5252 127.12 24.4585C126.747 23.3669 126.362 22.263 125.964 21.1467H114.257L111.908 27.733H108.142L108.979 25.4457C109.459 24.1415 109.922 22.8901 110.371 21.6913L111.458 18.7949C112.146 16.9691 112.818 15.2226 113.474 13.5556C114.225 11.7033 114.966 9.92938 115.698 8.2339L115.972 7.60177C116.792 5.69159 117.65 3.80622 118.544 1.94566H121.863C122.608 3.49613 123.328 5.06382 124.022 6.64875L124.435 7.60177C125.256 9.48714 126.076 11.4717 126.896 13.5556C127.657 15.431 128.427 17.4069 129.208 19.4833L130.036 21.6913C130.741 23.5751 131.484 25.589 132.265 27.733H128.313ZM124.92 18.1698C124.125 16.0115 123.329 13.9277 122.534 11.9183C121.763 9.88406 120.955 7.93667 120.11 6.07611C119.24 7.93667 118.408 9.88406 117.612 11.9183C116.842 13.9277 116.071 16.0115 115.301 18.1698H124.92ZM142.597 1.68518C146.13 1.68518 148.862 2.34371 150.793 3.66078L150.948 3.76901C152.912 5.13342 153.894 7.18004 153.894 9.90886C153.894 11.3973 153.62 12.6749 153.073 13.7416C152.551 14.7835 151.781 15.6394 150.762 16.3092C149.768 16.9542 148.55 17.4255 147.108 17.7232C145.666 18.0209 144.038 18.1698 142.224 18.1698H139.353V27.733H135.736V2.31777C136.755 2.0697 137.886 1.90845 139.129 1.83403C140.27 1.74472 141.32 1.6956 142.28 1.68667L142.597 1.68518ZM142.895 4.84814L142.192 4.85092C140.99 4.86081 140.044 4.8971 139.353 4.95977V15.0812H142.075C143.317 15.0812 144.436 15.0068 145.43 14.858C146.424 14.6843 147.257 14.4114 147.928 14.0393C148.624 13.6424 149.159 13.109 149.531 12.4392C149.904 11.7694 150.091 10.9136 150.091 9.87165C150.091 8.94137 149.916 8.16372 149.566 7.53868L149.494 7.41571C149.121 6.77072 148.599 6.26216 147.928 5.89005C147.282 5.49313 146.524 5.22025 145.654 5.0714C144.784 4.92256 143.864 4.84814 142.895 4.84814ZM158.383 1.94566H162V27.733H158.383V1.94566Z" fill="#009688"/>
</g>
<defs>
<clipPath id="clip0_11959_142">
<rect width="162" height="30" fill="white"/>
</clipPath>
</defs>
</svg>
