<svg width="273" height="32" viewBox="0 0 273 32" fill="none" xmlns="http://www.w3.org/2000/svg">
<g clip-path="url(#clip0_11959_120)">
<path d="M76.9997 20.0681C77.3208 20.0681 77.5813 19.8077 77.5813 19.4864V11.5767C77.5813 11.2554 77.3208 10.995 76.9997 10.995H76.3717C76.0504 10.995 75.7901 11.2554 75.7901 11.5767V19.4864C75.7901 19.8077 76.0504 20.0681 76.3717 20.0681H76.9997ZM90.6977 20.0681C91.019 20.0681 91.2792 19.8077 91.2792 19.4864V11.5767C91.2792 11.2554 91.019 10.995 90.6977 10.995H90.0952C89.7742 10.995 89.5137 11.2554 89.5137 11.5767V16.9968L85.9104 11.267C85.804 11.0977 85.6182 10.995 85.4182 10.995H84.1205C83.7994 10.995 83.5389 11.2554 83.5389 11.5767V19.4864C83.5389 19.8077 83.7994 20.0681 84.1205 20.0681H84.7229C85.0442 20.0681 85.3045 19.8077 85.3045 19.4864V13.6312L89.2526 19.8C89.3596 19.9671 89.5442 20.0681 89.7422 20.0681H90.6977ZM103.319 12.6714C103.64 12.6714 103.9 12.411 103.9 12.0897V11.5767C103.9 11.2554 103.64 10.995 103.319 10.995H96.9717C96.6507 10.995 96.3901 11.2554 96.3901 11.5767V12.0897C96.3901 12.411 96.6507 12.6714 96.9717 12.6714H99.256V19.4864C99.256 19.8077 99.5165 20.0681 99.8375 20.0681H100.453C100.774 20.0681 101.034 19.8077 101.034 19.4864V12.6714H103.319ZM114.106 20.0681C114.427 20.0681 114.687 19.8077 114.687 19.4864V18.9862C114.687 18.6649 114.427 18.4045 114.106 18.4045H110.773V16.3058H113.735C114.056 16.3058 114.316 16.0454 114.316 15.7241V15.3134C114.316 14.9922 114.056 14.7317 113.735 14.7317H110.773V12.6586H114.106C114.427 12.6586 114.687 12.3982 114.687 12.0769V11.5767C114.687 11.2554 114.427 10.995 114.106 10.995H109.589C109.267 10.995 109.007 11.2554 109.007 11.5767V19.4864C109.007 19.8077 109.267 20.0681 109.589 20.0681H114.106ZM124.57 19.7504C124.669 19.9453 124.87 20.0681 125.088 20.0681H125.741C126.178 20.0681 126.459 19.6037 126.256 19.2164L124.757 16.357C125.947 16.0114 126.689 15.0517 126.689 13.7848C126.689 12.2107 125.564 10.995 123.798 10.995H120.836C120.514 10.995 120.254 11.2554 120.254 11.5767V19.4864C120.254 19.8077 120.514 20.0681 120.836 20.0681H121.451C121.772 20.0681 122.032 19.8077 122.032 19.4864V16.5745H122.954L124.57 19.7504ZM122.032 15.0517V12.5306H123.465C124.361 12.5306 124.885 13.0297 124.885 13.7976C124.885 14.5398 124.361 15.0517 123.465 15.0517H122.032ZM139.31 20.0681C139.631 20.0681 139.891 19.8077 139.891 19.4864V11.5767C139.891 11.2554 139.631 10.995 139.31 10.995H138.707C138.386 10.995 138.126 11.2554 138.126 11.5767V16.9968L134.522 11.267C134.416 11.0977 134.23 10.995 134.03 10.995H132.732C132.411 10.995 132.151 11.2554 132.151 11.5767V19.4864C132.151 19.8077 132.411 20.0681 132.732 20.0681H133.335C133.656 20.0681 133.917 19.8077 133.917 19.4864V13.6312L137.865 19.8C137.971 19.9671 138.156 20.0681 138.354 20.0681H139.31ZM150.958 20.0681C151.28 20.0681 151.54 19.8077 151.54 19.4864V18.9862C151.54 18.6649 151.28 18.4045 150.958 18.4045H147.625V16.3058H150.587C150.909 16.3058 151.169 16.0454 151.169 15.7241V15.3134C151.169 14.9922 150.909 14.7317 150.587 14.7317H147.625V12.6586H150.958C151.28 12.6586 151.54 12.3982 151.54 12.0769V11.5767C151.54 11.2554 151.28 10.995 150.958 10.995H146.441C146.12 10.995 145.859 11.2554 145.859 11.5767V19.4864C145.859 19.8077 146.12 20.0681 146.441 20.0681H150.958ZM163.178 12.6714C163.499 12.6714 163.76 12.411 163.76 12.0897V11.5767C163.76 11.2554 163.499 10.995 163.178 10.995H156.831C156.51 10.995 156.249 11.2554 156.249 11.5767V12.0897C156.249 12.411 156.51 12.6714 156.831 12.6714H159.115V19.4864C159.115 19.8077 159.376 20.0681 159.697 20.0681H160.312C160.633 20.0681 160.894 19.8077 160.894 19.4864V12.6714H163.178Z" fill="black"/>
<path d="M179.497 20.2601C181.73 20.2601 183.008 18.9613 183.522 17.701C183.639 17.4142 183.461 17.1057 183.165 17.016L182.607 16.8476C182.297 16.7537 181.975 16.9363 181.819 17.2209C181.448 17.902 180.72 18.5325 179.497 18.5325C178.039 18.5325 176.683 17.4704 176.683 15.538C176.683 13.4777 178.116 12.5051 179.472 12.5051C180.699 12.5051 181.397 13.0888 181.748 13.7586C181.904 14.0553 182.236 14.25 182.556 14.1492L183.111 13.9741C183.403 13.882 183.578 13.5771 183.465 13.2925C182.952 11.9996 181.685 10.8031 179.472 10.8031C177.041 10.8031 174.853 12.6459 174.853 15.538C174.853 18.4302 176.964 20.2601 179.497 20.2601ZM190.191 15.5252C190.191 13.4777 191.624 12.5051 193.019 12.5051C194.426 12.5051 195.859 13.4777 195.859 15.5252C195.859 17.5727 194.426 18.5453 193.019 18.5453C191.624 18.5453 190.191 17.5727 190.191 15.5252ZM188.362 15.538C188.362 18.4557 190.562 20.2601 193.019 20.2601C195.488 20.2601 197.688 18.4557 197.688 15.538C197.688 12.6075 195.488 10.8031 193.019 10.8031C190.562 10.8031 188.362 12.6075 188.362 15.538ZM212.646 20.0682C212.967 20.0682 213.227 19.8078 213.227 19.4865V11.5767C213.227 11.2555 212.967 10.9951 212.646 10.9951H211.213C210.977 10.9951 210.764 11.1385 210.675 11.3578L208.161 17.5472L205.585 11.3533C205.495 11.1364 205.283 10.9951 205.048 10.9951H203.689C203.368 10.9951 203.107 11.2555 203.107 11.5767V19.4865C203.107 19.8078 203.368 20.0682 203.689 20.0682H204.215C204.536 20.0682 204.796 19.8078 204.796 19.4865V13.7592L207.257 19.7089C207.347 19.9264 207.56 20.0682 207.795 20.0682H208.487C208.723 20.0682 208.936 19.9257 209.025 19.7074L211.487 13.708V19.4865C211.487 19.8078 211.748 20.0682 212.069 20.0682H212.646ZM220.968 15.1285V12.5307H222.362C223.245 12.5307 223.783 13.0298 223.783 13.836C223.783 14.6166 223.245 15.1285 222.362 15.1285H220.968ZM222.58 16.6514C224.371 16.6514 225.561 15.474 225.561 13.8232C225.561 12.1852 224.371 10.9951 222.58 10.9951H219.771C219.45 10.9951 219.19 11.2555 219.19 11.5767V19.4865C219.19 19.8078 219.45 20.0682 219.771 20.0682H220.374C220.695 20.0682 220.955 19.8078 220.955 19.4865V16.6514H222.58ZM234.177 20.2729C236.122 20.2729 237.67 19.0828 237.67 16.8561V11.5767C237.67 11.2555 237.41 10.9951 237.089 10.9951H236.486C236.165 10.9951 235.905 11.2555 235.905 11.5767V16.7281C235.905 17.9183 235.252 18.5453 234.177 18.5453C233.128 18.5453 232.463 17.9183 232.463 16.7281V11.5767C232.463 11.2555 232.203 10.9951 231.881 10.9951H231.279C230.958 10.9951 230.697 11.2555 230.697 11.5767V16.8561C230.697 19.0828 232.245 20.2729 234.177 20.2729ZM249.63 12.6715C249.951 12.6715 250.211 12.4111 250.211 12.0898V11.5767C250.211 11.2555 249.951 10.9951 249.63 10.9951H243.283C242.961 10.9951 242.701 11.2555 242.701 11.5767V12.0898C242.701 12.4111 242.961 12.6715 243.283 12.6715H245.567V19.4865C245.567 19.8078 245.827 20.0682 246.148 20.0682H246.764C247.085 20.0682 247.345 19.8078 247.345 19.4865V12.6715H249.63ZM260.417 20.0682C260.738 20.0682 260.998 19.8078 260.998 19.4865V18.9862C260.998 18.665 260.738 18.4046 260.417 18.4046H257.083V16.3058H260.046C260.367 16.3058 260.627 16.0454 260.627 15.7242V15.3135C260.627 14.9922 260.367 14.7318 260.046 14.7318H257.083V12.6587H260.417C260.738 12.6587 260.998 12.3983 260.998 12.077V11.5767C260.998 11.2555 260.738 10.9951 260.417 10.9951H255.899C255.578 10.9951 255.318 11.2555 255.318 11.5767V19.4865C255.318 19.8078 255.578 20.0682 255.899 20.0682H260.417ZM270.881 19.7504C270.98 19.9454 271.18 20.0682 271.399 20.0682H272.052C272.489 20.0682 272.769 19.6038 272.566 19.2165L271.068 16.357C272.258 16.0115 273 15.0517 273 13.7848C273 12.2108 271.874 10.9951 270.109 10.9951H266.565V19.4865C266.565 19.8078 266.825 20.0682 267.146 20.0682H267.761C268.083 20.0682 268.343 19.8078 268.343 19.4865V16.5746H269.264L270.881 19.7504ZM268.343 15.0517V12.5307H269.776C270.672 12.5307 271.196 13.0298 271.196 13.7976C271.196 14.5398 270.672 15.0517 269.776 15.0517H268.343Z" fill="black"/>
<path d="M50.7201 0C46.9753 0 42.8928 1.91948 38.5781 5.70028C36.5311 7.49181 34.7632 9.41128 33.4375 10.9469C33.4375 10.9469 33.4375 10.9469 33.4492 10.9585V10.9469C33.4492 10.9469 35.5424 13.227 37.857 15.67C39.1015 14.1926 40.8926 12.18 42.951 10.3652C46.7892 7.00322 49.2895 6.2936 50.7201 6.2936C56.1052 6.2936 60.4781 10.563 60.4781 15.8096C60.4781 21.0213 56.0936 25.2907 50.7201 25.3256C50.4759 25.3256 50.1618 25.2907 49.7664 25.2092C51.3366 25.884 53.023 26.3726 54.6281 26.3726C64.4905 26.3726 66.4212 19.9394 66.5491 19.474C66.8399 18.2991 66.9911 17.066 66.9911 15.7979C66.9911 7.09626 59.6872 0 50.7201 0Z" fill="url(#paint0_linear_11959_120)"/>
<path d="M16.2709 31.6424C20.0159 31.6424 24.0982 29.7229 28.4131 25.9421C30.46 24.1506 32.2279 22.2311 33.5536 20.6955C33.5536 20.6955 33.5536 20.6955 33.5419 20.6839V20.6955C33.5419 20.6955 31.4487 18.4154 29.1341 15.9724C27.8897 17.4498 26.0986 19.4624 24.04 21.2772C20.202 24.6392 17.7015 25.3488 16.2709 25.3488C10.886 25.3372 6.51302 21.0678 6.51302 15.8212C6.51302 10.6095 10.8977 6.34008 16.2709 6.30518C16.5152 6.30518 16.8292 6.34008 17.2246 6.42152C15.6545 5.74679 13.9681 5.25818 12.3631 5.25818C2.50053 5.25818 0.581519 11.6914 0.441955 12.1451C0.151195 13.3317 0 14.5532 0 15.8212C0 24.5461 7.30389 31.6424 16.2709 31.6424Z" fill="url(#paint1_linear_11959_120)"/>
<path d="M54.6048 26.233C49.557 26.105 44.3118 22.1264 43.2418 21.1376C40.4739 18.5783 34.0886 11.6565 33.5887 11.1097C28.9132 5.86315 22.5746 0 16.271 0H16.2593H16.2477C8.59488 0.0348996 2.16328 5.22333 0.441978 12.1451C0.569912 11.6914 3.09372 5.13026 12.3515 5.36293C17.3991 5.4909 22.6677 9.52762 23.7493 10.5165C26.5173 13.0758 32.9025 19.9975 33.4027 20.5443C38.078 25.7793 44.4165 31.6425 50.7201 31.6425H50.7318H50.7434C58.3962 31.6076 64.8394 26.4191 66.5491 19.4973C66.4096 19.951 63.874 26.454 54.6048 26.233Z" fill="#29ABE2"/>
</g>
<defs>
<linearGradient id="paint0_linear_11959_120" x1="914.707" y1="633.243" x2="2689.48" y2="2470.64" gradientUnits="userSpaceOnUse">
<stop offset="0.21" stop-color="#F15A24"/>
<stop offset="0.6841" stop-color="#FBB03B"/>
</linearGradient>
<linearGradient id="paint1_linear_11959_120" x1="2474.08" y1="2010.82" x2="698.669" y2="172.78" gradientUnits="userSpaceOnUse">
<stop offset="0.21" stop-color="#ED1E79"/>
<stop offset="0.8929" stop-color="#522785"/>
</linearGradient>
<clipPath id="clip0_11959_120">
<rect width="273" height="32" fill="white"/>
</clipPath>
</defs>
</svg>
