<svg width="164" height="30" viewBox="0 0 164 30" fill="none" xmlns="http://www.w3.org/2000/svg">
<g clip-path="url(#clip0_11959_174)">
<path d="M44.5391 9.97468C46.2012 9.97468 47.9399 10.3599 49.3316 11.168V16.4432C48.0174 15.5193 46.6644 15.0574 45.1961 15.0574C42.2588 15.0574 40.0173 17.0981 40.0173 19.9861C40.0173 22.8357 42.2201 24.9147 45.1961 24.9147C46.7032 24.9147 48.1724 24.2987 49.3704 23.4517V28.7655C47.8246 29.6122 46.1237 29.9978 44.4616 29.9978C38.5877 29.9978 34.3362 25.9545 34.3362 19.9861C34.3362 14.2484 38.549 9.97468 44.5391 9.97468ZM60.6127 9.97468C66.5263 9.97468 70.9707 14.3256 70.9707 19.9861C70.9707 25.6465 66.5263 29.9978 60.6127 29.9978C54.7001 29.9978 50.2554 25.6465 50.2554 19.9861C50.2554 14.3256 54.7001 9.97468 60.6127 9.97468ZM60.6127 24.877C63.2409 24.877 65.4049 22.7199 65.4049 19.9861C65.4049 17.2526 63.2409 15.0961 60.6127 15.0961C57.9852 15.0961 55.8202 17.2526 55.8202 19.9861C55.8202 22.7199 57.9852 24.877 60.6127 24.877ZM92.9777 2.5433V29.4973H87.3732V26.956C86.06 28.8814 83.7021 29.9592 81.1902 29.9592C76.0499 29.9592 72.1472 25.6465 72.1472 19.9861C72.1472 14.3643 76.0499 10.0133 81.1902 10.0133C83.7021 10.0133 86.06 10.9759 87.3732 12.9393V2.5433H92.9777ZM82.6582 24.9147C85.403 24.9147 87.567 22.7199 87.567 19.9861C87.567 17.2526 85.403 15.0574 82.6582 15.0574C79.9148 15.0574 77.7507 17.2526 77.7507 19.9861C77.7507 22.7199 79.9148 24.9147 82.6582 24.9147ZM95.5937 29.4973V10.4748H101.236V29.4973H95.5937ZM116.286 10.4748H121.928V29.4973H116.286V27.0718C115.165 28.8814 113.232 29.9978 110.72 29.9978C106.392 29.9978 103.726 26.9946 103.726 22.2195V10.4748H109.368V20.8717C109.368 23.3745 110.605 24.8384 112.73 24.8384C114.894 24.8384 116.286 23.221 116.286 20.5251V10.4748ZM130.187 29.4973H124.545V10.4748H130.187V12.8627C131.192 11.1294 133.047 9.97468 135.559 9.97468C138.149 9.97468 140.12 11.2066 141.164 13.2859C142.362 11.2838 144.526 9.97468 147.308 9.97468C151.675 9.97468 154.148 12.9393 154.148 17.5605V29.4973H148.506V18.8697C148.506 16.5204 147.424 15.0961 145.453 15.0961C143.521 15.0961 142.207 16.6749 142.168 19.2166V29.4973H136.526V18.9463C136.526 16.5204 135.444 15.0961 133.512 15.0961C131.502 15.0961 130.187 16.7129 130.187 19.3315V29.4973ZM160.826 2.80915V8.89596H159.057V8.0834C158.637 8.69968 157.882 9.04436 157.078 9.04436C155.433 9.04436 154.185 7.66404 154.185 5.85255C154.185 4.05415 155.433 2.6617 157.078 2.6617C157.882 2.6617 158.637 2.96968 159.057 3.59777V2.80915H160.826ZM157.548 7.43043C158.427 7.43043 159.119 6.72798 159.119 5.85255C159.119 4.9784 158.427 4.27564 157.548 4.27564C156.67 4.27564 155.977 4.9784 155.977 5.85255C155.977 6.72798 156.67 7.43043 157.548 7.43043ZM162.046 8.89596V2.80915H163.852V8.89596H162.046ZM162.949 2.09457C162.368 2.09457 161.898 1.61394 161.898 1.04777C161.898 0.480638 162.368 0 162.949 0C163.531 0 164 0.480638 164 1.04777C164 1.61394 163.531 2.09457 162.949 2.09457ZM98.4151 2.50277C100.231 2.50277 101.7 4.00532 101.7 5.77628C101.7 7.54723 100.231 9.04883 98.4151 9.04883C96.5989 9.04883 95.1296 7.54723 95.1296 5.77628C95.1296 4.00532 96.5989 2.50277 98.4151 2.50277Z" fill="black" fill-opacity="0.2"/>
<path d="M9.98959 10.1074C11.4243 10.1074 12.7846 10.4097 14.0172 10.9528C11.2862 12.4963 9.38067 15.9928 9.38067 20.0607C9.38067 24.128 11.2881 27.6252 14.0172 29.1686C12.7846 29.7111 11.4243 30.014 9.98959 30.014C4.47284 30.014 0 25.5574 0 20.0607C0 14.5643 4.47284 10.1074 9.98959 10.1074Z" fill="#8989A2"/>
<path d="M17.8674 13.9439C16.8571 12.6558 15.538 11.6211 14.0162 10.9528C14.9756 10.4097 16.0348 10.1074 17.1492 10.1074C18.2005 10.1074 19.2056 10.3777 20.1191 10.8625C19.2261 11.5251 18.4513 12.5958 17.8658 13.9439H17.8674Z" fill="#8989A2"/>
<path d="M17.8658 26.1776C18.4513 27.5257 19.2261 28.5939 20.1191 29.259C19.2037 29.7454 18.2005 30.0141 17.1492 30.0141C16.0329 30.0141 14.974 29.7119 14.0162 29.1687C15.5352 28.5004 16.8571 27.4657 17.8674 26.1776H17.8658Z" fill="#8989A2"/>
<path d="M9.3797 20.0608C9.3797 15.9929 11.2872 12.4963 14.0162 10.9529C15.5351 11.6212 16.8571 12.6559 17.8673 13.9439C17.1319 15.6326 16.6944 17.7543 16.6944 20.0608C16.6944 22.3663 17.1335 24.4889 17.8673 26.1769C16.8571 27.4656 15.538 28.4994 14.0162 29.1686C11.2856 27.6252 9.3797 24.128 9.3797 20.0608Z" fill="#8989A2"/>
<path d="M23.9187 24.9421C24.2012 26.4428 24.6103 27.7015 25.1035 28.5897C24.2691 29.4932 23.2909 30.0131 22.2428 30.0131C21.4911 30.0131 20.7745 29.7444 20.1201 29.258C21.7322 28.4033 23.0686 26.8727 23.9187 24.9447V24.9421Z" fill="#8989A2"/>
<path d="M20.1201 10.8625C20.7745 10.3761 21.4911 10.1074 22.2428 10.1074C23.2893 10.1074 24.2675 10.6276 25.1035 11.5311C24.6119 12.419 24.2028 13.6771 23.9187 15.1777C23.0686 13.2488 21.7322 11.7188 20.1201 10.8644V10.8625Z" fill="#8989A2"/>
<path d="M17.8673 26.176C19.1883 24.4883 19.9779 22.3663 19.9779 20.0598C19.9779 17.7536 19.1883 15.6316 17.8673 13.944C18.4538 12.5968 19.228 11.5267 20.1217 10.8619C21.7332 11.7163 23.0695 13.2473 23.9196 15.1752C23.6464 16.6175 23.4917 18.2837 23.4917 20.0582C23.4917 21.8327 23.6483 23.498 23.9196 24.9406C23.0695 26.8692 21.7332 28.4001 20.1217 29.2545C19.228 28.5913 18.4538 27.5215 17.8673 26.1725V26.176Z" fill="#8989A2"/>
<path d="M17.8664 26.1776C17.1319 24.4889 16.6944 22.3672 16.6944 20.0607C16.6944 17.7552 17.1335 15.6332 17.8664 13.9446C19.1883 15.6332 19.9779 17.7552 19.9779 20.0607C19.9779 22.3672 19.1883 24.4889 17.8664 26.1776Z" fill="#8989A2"/>
<path d="M25.1035 11.5311C25.6048 10.6276 26.1913 10.1074 26.8207 10.1074C28.6603 10.1074 30.151 14.5643 30.151 20.0607C30.151 25.5574 28.6603 30.014 26.8207 30.014C26.1929 30.014 25.6048 29.4932 25.1035 28.5903C26.715 26.8477 27.7932 23.6818 27.7932 20.0607C27.7932 16.44 26.715 13.2721 25.1035 11.5311Z" fill="#8989A2"/>
<path d="M25.1035 11.5311C25.6048 10.6276 26.1913 10.1074 26.8207 10.1074C28.6603 10.1074 30.151 14.5643 30.151 20.0607C30.151 25.5574 28.6603 30.014 26.8207 30.014C26.1929 30.014 25.6048 29.4932 25.1035 28.5903C26.715 26.8477 27.7932 23.6818 27.7932 20.0607C27.7932 16.44 26.715 13.2721 25.1035 11.5311Z" fill="#8989A2"/>
<path d="M24.9194 20.0618C24.9194 18.2863 24.5558 16.621 23.9187 15.1788C24.2012 13.6778 24.6103 12.4201 25.1045 11.5319C26.7157 13.2728 27.7938 16.4426 27.7938 20.0618C27.7938 23.6799 26.7157 26.8504 25.1045 28.5913C24.6119 27.7025 24.2038 26.4444 23.9187 24.9438C24.5542 23.5015 24.9194 21.8362 24.9194 20.0618Z" fill="#8989A2"/>
<path d="M23.9187 24.9431C23.6458 23.5005 23.4908 21.8352 23.4908 20.0607C23.4908 18.2856 23.6474 16.62 23.9187 15.1777C24.5542 16.62 24.9193 18.2856 24.9193 20.0607C24.9193 21.8352 24.5558 23.5005 23.9187 24.9431Z" fill="#8989A2"/>
</g>
<defs>
<clipPath id="clip0_11959_174">
<rect width="164" height="30" fill="white"/>
</clipPath>
</defs>
</svg>
