<svg width="156" height="29" viewBox="0 0 156 29" fill="none" xmlns="http://www.w3.org/2000/svg">
<g clip-path="url(#clip0_11959_160)">
<path opacity="0.98" d="M14.4074 0C6.45301 0 0 6.46519 0 14.4346C0 22.404 6.45301 28.8692 14.4074 28.8692C22.3618 28.8692 28.8148 22.404 28.8148 14.4346C28.8148 6.46519 22.3618 0 14.4074 0ZM13.6567 26.0054V16.9513H8.63291L15.851 2.86378V11.9179H20.6872L13.6567 26.0054Z" fill="#8989A2"/>
<path d="M40.3204 26.8086V1.88082H55.3279V4.86641H43.803V12.3843H54.0354V15.3339H43.803V26.8086H40.3204ZM63.8846 24.3986L64.397 24.3968C64.9782 24.3927 65.5016 24.3813 65.967 24.3626C66.5893 24.3147 67.1039 24.2427 67.5108 24.1468V18.5713C67.2715 18.4514 66.8765 18.3555 66.326 18.2835C65.7994 18.1876 65.1532 18.1397 64.3872 18.1397C63.8846 18.1397 63.3461 18.1756 62.7716 18.2476C62.2211 18.3195 61.7065 18.4754 61.2278 18.7152C60.773 18.931 60.39 19.2428 60.0789 19.6504C59.7677 20.0341 59.6121 20.5497 59.6121 21.1972C59.6121 22.3962 59.9951 23.2355 60.761 23.7151C61.527 24.1708 62.5682 24.3986 63.8846 24.3986ZM63.5974 7.63616C64.854 7.63616 65.9213 7.79424 66.7992 8.11039L66.9723 8.17573C67.8435 8.48907 68.548 8.9382 69.0856 9.52311L69.1983 9.65053C69.7727 10.274 70.1796 11.0294 70.419 11.9167C70.6583 12.78 70.778 13.7392 70.778 14.7944V26.4849L70.1317 26.5971C69.9594 26.6278 69.7679 26.6624 69.5573 26.7007L69.1668 26.7547C68.7629 26.8086 68.3186 26.8626 67.8339 26.9165C67.1877 26.9885 66.4816 27.0484 65.7157 27.0964C64.9737 27.1683 64.2317 27.2043 63.4897 27.2043C62.4365 27.2043 61.4671 27.0964 60.5815 26.8806C59.6959 26.6648 58.93 26.329 58.2837 25.8734C57.6375 25.3938 57.1348 24.7703 56.7758 24.0029C56.4168 23.2355 56.2373 22.3123 56.2373 21.2332C56.2373 20.202 56.4407 19.3147 56.8476 18.5713C57.2784 17.8279 57.8529 17.2284 58.571 16.7728C59.289 16.3171 60.1268 15.9814 61.0842 15.7656C62.0416 15.5498 63.0469 15.4418 64.1 15.4418C64.4351 15.4418 64.7822 15.4658 65.1412 15.5138C65.5002 15.5378 65.8353 15.5857 66.1465 15.6577L66.4656 15.7056C66.6172 15.7296 66.7568 15.7536 66.8845 15.7776L67.3728 15.8774C67.4289 15.8898 67.4749 15.9005 67.5108 15.9095V14.9742C67.5108 14.4227 67.451 13.8831 67.3313 13.3555C67.2116 12.804 66.9962 12.3244 66.685 11.9167C66.3739 11.485 65.943 11.1493 65.3925 10.9095C64.866 10.6457 64.1718 10.5138 63.3102 10.5138C62.3009 10.5138 61.4022 10.5844 60.6142 10.7254L60.0657 10.828C59.418 10.9543 58.9197 11.0894 58.571 11.2332L58.176 8.46349C58.6069 8.27165 59.3249 8.09179 60.3302 7.92393C61.235 7.75127 62.2076 7.65631 63.248 7.63904L63.5974 7.63616ZM80.6328 24.3986C81.9971 24.3986 83.0024 24.2187 83.6487 23.859C84.3189 23.4993 84.6539 22.9238 84.6539 22.1324C84.6539 21.3171 84.3308 20.6696 83.6846 20.19C83.0383 19.7104 81.9732 19.1708 80.4892 18.5713C79.7711 18.2835 79.077 17.9958 78.4068 17.708C77.7606 17.3963 77.1981 17.0365 76.7194 16.6289C76.2407 16.2212 75.8577 15.7296 75.5705 15.1541C75.2833 14.5785 75.1396 13.8711 75.1396 13.0318C75.1396 11.3771 75.75 10.0702 76.9707 9.11097C78.1914 8.12776 79.8549 7.63616 81.9612 7.63616C82.4878 7.63616 83.0144 7.67213 83.541 7.74408C84.0675 7.79204 84.5582 7.86398 85.013 7.9599C85.4028 8.02156 85.7486 8.09204 86.0505 8.17132L86.4513 8.28139C86.6892 8.34884 86.8799 8.40954 87.0236 8.46349L86.4132 11.3412C86.0542 11.1493 85.4917 10.9575 84.7257 10.7656C83.9598 10.5498 83.0383 10.4419 81.9612 10.4419C81.0277 10.4419 80.2139 10.6337 79.5198 11.0174C78.8257 11.3771 78.4786 11.9527 78.4786 12.744C78.4786 13.1517 78.5504 13.5114 78.694 13.8232C78.8616 14.1349 79.101 14.4227 79.4121 14.6865C79.7472 14.9263 80.1541 15.1541 80.6328 15.3699C81.1115 15.5857 81.686 15.8135 82.3562 16.0533C83.2418 16.3891 84.0316 16.7248 84.7257 17.0605C85.4199 17.3723 86.0063 17.744 86.485 18.1756C86.9876 18.6073 87.3706 19.1348 87.6339 19.7583C87.8972 20.3579 88.0288 21.1013 88.0288 21.9885C88.0288 23.7151 87.3826 25.0221 86.0901 25.9094C84.8215 26.7966 83.0024 27.2403 80.6328 27.2403C79.0639 27.2403 77.8189 27.1104 76.898 26.8507L76.1461 26.6324C75.5399 26.4522 75.1087 26.3072 74.8524 26.1971L75.4628 23.3195L75.9215 23.4873C76.2779 23.6152 76.7353 23.7751 77.2938 23.9669C78.0823 24.2378 79.1146 24.3812 80.3907 24.3971L80.6328 24.3986ZM95.4002 8.10378H102.473V10.9095H95.4002V19.5425C95.4002 20.4778 95.472 21.2571 95.6156 21.8806C95.7592 22.4801 95.9746 22.9598 96.2618 23.3195C96.5491 23.6552 96.9081 23.895 97.3389 24.0389C97.7698 24.1828 98.2724 24.2547 98.8469 24.2547C99.8522 24.2547 100.654 24.1468 101.252 23.931L102.545 23.4274L103.191 26.1971C102.856 26.365 102.27 26.5688 101.432 26.8086C100.594 27.0724 99.6367 27.2043 98.5596 27.2043C97.2911 27.2043 96.2379 27.0484 95.4002 26.7367C94.5864 26.401 93.9281 25.9094 93.4255 25.2619C92.9229 24.6144 92.5638 23.8231 92.3484 22.8878C92.1569 21.9286 92.0612 20.8255 92.0612 19.5785V2.88801L95.4002 2.31247V8.10378ZM123.56 26.8086C123.154 25.7295 122.771 24.6744 122.412 23.6432C122.053 22.588 121.682 21.5209 121.299 20.4418H110.025L107.763 26.8086H104.137L104.943 24.5975C105.405 23.3368 105.851 22.1271 106.283 20.9683L107.329 18.1684C107.992 16.4035 108.639 14.7152 109.271 13.1037C109.994 11.3132 110.708 9.59843 111.413 7.95946L111.677 7.3484C112.466 5.50189 113.292 3.67937 114.154 1.88082H117.349C118.067 3.37961 118.76 4.89505 119.429 6.42714L119.827 7.3484C120.616 9.17092 121.406 11.0894 122.196 13.1037C122.929 14.9167 123.671 16.8267 124.423 18.8339L125.22 20.9683C125.899 22.7893 126.614 24.736 127.366 26.8086H123.56ZM120.293 17.5641C119.527 15.4778 118.761 13.4634 117.996 11.521C117.254 9.55461 116.476 7.67213 115.662 5.87359C114.824 7.67213 114.022 9.55461 113.256 11.521C112.514 13.4634 111.772 15.4778 111.03 17.5641H120.293ZM137.315 1.62903C140.718 1.62903 143.349 2.26561 145.208 3.53877L145.358 3.6434C147.248 4.96233 148.194 6.94073 148.194 9.57859C148.194 11.0174 147.931 12.2524 147.404 13.2836C146.901 14.2908 146.159 15.1181 145.178 15.7656C144.221 16.3891 143.048 16.8447 141.66 17.1325C140.271 17.4202 138.704 17.5641 136.956 17.5641H134.192V26.8086H130.709V2.24053C131.69 2.00073 132.78 1.84485 133.976 1.77291C135.075 1.68658 136.086 1.6391 137.01 1.63047L137.315 1.62903ZM137.603 4.68655L136.926 4.68924C135.768 4.69881 134.857 4.73388 134.192 4.79446V14.5785H136.813C138.009 14.5785 139.086 14.5066 140.044 14.3627C141.001 14.1949 141.803 13.9311 142.449 13.5714C143.12 13.1877 143.634 12.6721 143.993 12.0246C144.352 11.3771 144.532 10.5498 144.532 9.54262C144.532 8.64335 144.363 7.89161 144.027 7.28741L143.957 7.16854C143.598 6.54505 143.096 6.05344 142.449 5.69374C141.827 5.31005 141.097 5.04626 140.259 4.90238C139.422 4.75849 138.536 4.68655 137.603 4.68655ZM152.517 1.88082H156V26.8086H152.517V1.88082Z" fill="#8989A2"/>
</g>
<defs>
<clipPath id="clip0_11959_160">
<rect width="156" height="29" fill="white"/>
</clipPath>
</defs>
</svg>
