<svg width="91" height="30" viewBox="0 0 91 30" fill="none" xmlns="http://www.w3.org/2000/svg">
<g clip-path="url(#clip0_11959_147)">
<rect width="91" height="30" fill="white"/>
<path d="M68.9128 15.2166V21.8169H71.9243V15.6213C71.9243 12.8619 76.1079 12.8574 76.1079 12.8574V10.172L75.8025 10.189C75.3936 10.2155 74.6463 10.2777 74.014 10.4055L73.6408 10.4855C71.1626 11.0497 68.9128 12.244 68.9128 15.2166ZM46.2112 10.0386C47.3843 10.0386 48.8502 10.6345 49.6482 11.6826C50.4746 10.7294 51.8334 10.086 53.5125 10.0616C55.6454 10.0371 58.2827 11.2289 58.2827 14.8037V21.8087H55.2704V14.8037C55.2704 13.6119 54.3106 12.7551 52.8737 12.7551C51.4368 12.7551 50.4761 13.6119 50.4761 14.8037V21.8087H47.4647V14.8037C47.4647 13.6119 46.5057 12.7551 45.0672 12.7551C43.6287 12.7551 42.6423 13.6119 42.6423 14.8037V21.8087H39.4749V10.3936H42.6423V11.5403C43.4485 10.6631 44.6092 10.1033 45.9705 10.0438L46.2112 10.0386ZM65.2079 10.5389V21.817H62.145V10.5389H65.2079ZM63.6761 8.74453C64.6204 8.74453 65.386 8.0606 65.386 7.21693C65.386 6.37326 64.6204 5.68933 63.6761 5.68933C62.7318 5.68933 61.9663 6.37326 61.9663 7.21693C61.9663 8.0606 62.7318 8.74453 63.6761 8.74453ZM84.286 10.0141C80.5778 10.0141 77.5721 12.6995 77.5721 16.0126C77.5721 19.3258 80.5778 22.0111 84.286 22.0111C87.9944 22.0111 91 19.3258 91 16.0126C91 12.6995 87.9944 10.0141 84.286 10.0141ZM84.286 19.3139C82.1872 19.3139 80.4848 17.7937 80.4848 15.9178C80.4848 14.0418 82.1864 12.5216 84.286 12.5216C86.3858 12.5216 88.0873 14.0418 88.0873 15.9178C88.0873 17.7937 86.3858 19.3139 84.286 19.3139Z" fill="#8989A2"/>
<path d="M0 7.46138C0 3.34057 3.72074 0 8.3105 0H24.9315C29.5213 0 33.242 3.34057 33.242 7.46138V22.3841C33.242 26.505 29.5213 29.8455 24.9315 29.8455H8.3105C3.72074 29.8455 0 26.505 0 22.3841V7.46138Z" fill="#8989A2"/>
<path d="M22.1001 5.68933H19.0825L21.5971 9.65617L16.0648 5.68933H13.0473L15.8134 10.5378L10.0296 5.68933H7.01199L10.0296 11.8609L7.01199 24.2029H10.0296L15.8134 10.9793L13.0473 24.2029H16.0648L21.5971 10.0976L19.0825 24.2029H22.1001L27.6324 8.77455L22.1001 5.68933Z" fill="#8989A2"/>
<path d="M22.1001 5.68933H19.0825L21.5971 9.65617L16.0648 5.68933H13.0473L15.8134 10.5378L10.0296 5.68933H7.01199L10.0296 11.8609L7.01199 24.2029H10.0296L15.8134 10.9793L13.0473 24.2029H16.0648L21.5971 10.0976L19.0825 24.2029H22.1001L27.6324 8.77455L22.1001 5.68933Z" fill="black" fill-opacity="0.2"/>
</g>
<defs>
<clipPath id="clip0_11959_147">
<rect width="91" height="30" fill="white"/>
</clipPath>
</defs>
</svg>
