<svg width="41" height="40" viewBox="0 0 41 40" fill="none" xmlns="http://www.w3.org/2000/svg">
<path d="M20.5 40C31.5457 40 40.5 31.0457 40.5 20C40.5 8.9543 31.5457 0 20.5 0C9.4543 0 0.5 8.9543 0.5 20C0.5 31.0457 9.4543 40 20.5 40Z" fill="#E6F7FF"/>
<path d="M22.124 20.541H18.876C18.805 20.541 18.7346 20.555 18.669 20.5822C18.6034 20.6094 18.5437 20.6492 18.4935 20.6995C18.4432 20.7497 18.4034 20.8093 18.3762 20.875C18.349 20.9406 18.335 21.011 18.335 21.082V28.118C18.335 28.189 18.349 28.2594 18.3762 28.325C18.4034 28.3907 18.4432 28.4503 18.4935 28.5005C18.5437 28.5508 18.6034 28.5906 18.669 28.6178C18.7346 28.645 18.805 28.659 18.876 28.659H22.124C22.2675 28.659 22.4051 28.602 22.5066 28.5005C22.608 28.3991 22.665 28.2615 22.665 28.118V21.082C22.665 20.9385 22.608 20.8009 22.5066 20.6995C22.4051 20.598 22.2675 20.541 22.124 20.541Z" fill="#1890FF"/>
<path d="M15.629 23.789H12.381C12.2375 23.789 12.0999 23.846 11.9985 23.9474C11.897 24.0489 11.84 24.1865 11.84 24.33V28.119C11.84 28.2625 11.897 28.4001 11.9985 28.5015C12.0999 28.603 12.2375 28.66 12.381 28.66H15.629C15.7725 28.66 15.9101 28.603 16.0116 28.5015C16.113 28.4001 16.17 28.2625 16.17 28.119V24.33C16.17 24.1865 16.113 24.0489 16.0116 23.9474C15.9101 23.846 15.7725 23.789 15.629 23.789Z" fill="#1890FF"/>
<path d="M28.619 17.294H25.371C25.3 17.294 25.2296 17.308 25.164 17.3352C25.0983 17.3624 25.0387 17.4022 24.9885 17.4525C24.9382 17.5027 24.8984 17.5623 24.8712 17.628C24.844 17.6936 24.83 17.764 24.83 17.835V28.119C24.83 28.19 24.844 28.2604 24.8712 28.326C24.8984 28.3917 24.9382 28.4513 24.9885 28.5015C25.0387 28.5518 25.0983 28.5916 25.164 28.6188C25.2296 28.646 25.3 28.66 25.371 28.66H28.619C28.7625 28.66 28.9001 28.603 29.0016 28.5015C29.103 28.4001 29.16 28.2625 29.16 28.119V17.835C29.16 17.6915 29.103 17.5539 29.0016 17.4525C28.9001 17.351 28.7625 17.294 28.619 17.294Z" fill="#1890FF"/>
<path d="M20.5 17.84C20.5712 17.84 20.6417 17.826 20.7074 17.7987C20.7731 17.7714 20.8328 17.7314 20.883 17.681L25.372 13.188V15.67H26.455V11.881C26.455 11.8098 26.441 11.7393 26.4136 11.6735C26.3863 11.6077 26.3463 11.548 26.2959 11.4977C26.2454 11.4475 26.1855 11.4077 26.1197 11.3806C26.0538 11.3535 25.9832 11.3397 25.912 11.34H22.124V12.423H24.606L20.5 16.529L18.177 14.205C18.0756 14.1036 17.938 14.0466 17.7945 14.0466C17.6511 14.0466 17.5135 14.1036 17.412 14.205L14.705 16.911L15.47 17.676L17.794 15.353L20.118 17.677C20.1678 17.728 20.2272 17.7687 20.2927 17.7967C20.3583 17.8247 20.4287 17.8394 20.5 17.84Z" fill="#1890FF"/>
</svg>
