<svg width="27" height="18" viewBox="0 0 27 18" fill="none" xmlns="http://www.w3.org/2000/svg">
<path d="M26.232 8.347C25.0487 5.97796 23.2331 3.98247 20.986 2.58132C18.7389 1.18017 16.148 0.427987 13.5 0.407997C10.852 0.428213 8.26121 1.18049 6.01418 2.58161C3.76715 3.98274 1.95148 5.97811 0.767997 8.347C0.665695 8.54947 0.612396 8.77315 0.612396 9C0.612396 9.22685 0.665695 9.45052 0.767997 9.653C1.9513 12.022 3.76693 14.0175 6.014 15.4187C8.26106 16.8198 10.852 17.572 13.5 17.592C16.148 17.5718 18.7388 16.8195 20.9858 15.4184C23.2328 14.0173 25.0485 12.0219 26.232 9.653C26.3343 9.45052 26.3876 9.22685 26.3876 9C26.3876 8.77315 26.3343 8.54947 26.232 8.347ZM13.5 15.447C12.2255 15.447 10.9796 15.0691 9.9199 14.361C8.86019 13.6529 8.03425 12.6465 7.54652 11.469C7.05879 10.2915 6.93117 8.99585 7.17982 7.74584C7.42846 6.49582 8.04219 5.34761 8.9434 4.4464C9.84461 3.54519 10.9928 2.93146 12.2428 2.68282C13.4928 2.43417 14.7885 2.56179 15.966 3.04952C17.1435 3.53725 18.1499 4.36319 18.858 5.4229C19.5661 6.48261 19.944 7.72849 19.944 9.003C19.9432 10.7115 19.2639 12.3498 18.0555 13.5577C16.8471 14.7655 15.2085 15.444 13.5 15.444V15.447ZM13.5 4.707C13.1164 4.71245 12.7353 4.76963 12.367 4.877C12.6713 5.28938 12.8176 5.79726 12.7793 6.30834C12.741 6.81943 12.5206 7.29982 12.1582 7.66223C11.7958 8.02464 11.3154 8.24502 10.8043 8.28333C10.2933 8.32164 9.78538 8.17533 9.373 7.871C9.13809 8.73621 9.18042 9.6533 9.49402 10.4932C9.80762 11.3331 10.3767 12.0535 11.1212 12.553C11.8656 13.0526 12.748 13.3061 13.6441 13.2779C14.5402 13.2497 15.4049 12.9412 16.1165 12.3958C16.828 11.8504 17.3507 11.0957 17.6108 10.2377C17.871 9.37974 17.8556 8.4618 17.5667 7.61308C17.2779 6.76435 16.7301 6.02757 16.0006 5.50644C15.2711 4.98531 14.3965 4.70606 13.5 4.708V4.707Z" fill="#722ED1"/>
</svg>
